<svg width="40" height="40" viewBox="0 0 40 40" fill="none" xmlns="http://www.w3.org/2000/svg">
<rect width="40" height="40" rx="20" fill="#F2F4F7" fill-opacity="0.04"/>
<path d="M30 20C30 25.5228 25.5228 30 20 30C14.4772 30 10 25.5228 10 20C10 14.4772 14.4772 10 20 10C25.5228 10 30 14.4772 30 20Z" stroke="white" stroke-width="2"/>
<path d="M22.0545 24.4427C22.0011 24.3326 21.9557 24.2058 21.9183 24.0626C21.8809 23.9194 21.8489 23.7679 21.8222 23.6082C21.6993 23.7459 21.5577 23.8754 21.3975 23.9965C21.2372 24.1177 21.0583 24.2252 20.8606 24.3188C20.6683 24.4069 20.4546 24.4758 20.2196 24.5253C19.9846 24.5804 19.7309 24.608 19.4584 24.608C19.0151 24.608 18.6064 24.5419 18.2325 24.4097C17.8639 24.2775 17.5461 24.093 17.279 23.8561C17.0119 23.6192 16.8036 23.3383 16.654 23.0133C16.5044 22.6827 16.4297 22.3247 16.4297 21.9391C16.4297 20.9971 16.7688 20.27 17.4473 19.7576C18.131 19.2398 19.1486 18.9809 20.5001 18.9809H21.742V18.4521C21.742 18.0224 21.6058 17.6836 21.3334 17.4357C21.061 17.1823 20.6683 17.0556 20.1555 17.0556C19.7015 17.0556 19.3703 17.1576 19.162 17.3613C18.9536 17.5597 18.8495 17.8269 18.8495 18.1628H16.622C16.622 17.7828 16.7021 17.422 16.8623 17.0804C17.0279 16.7389 17.2657 16.4387 17.5755 16.1797C17.8906 15.9208 18.2726 15.717 18.7213 15.5683C19.1753 15.414 19.6934 15.3369 20.2757 15.3369C20.7992 15.3369 21.2853 15.403 21.734 15.5352C22.1881 15.6674 22.5806 15.863 22.9118 16.1219C23.243 16.3808 23.5021 16.7086 23.6891 17.1052C23.8761 17.4963 23.9695 17.9508 23.9695 18.4686V22.3026C23.9695 22.7819 23.9989 23.1785 24.0577 23.4925C24.1164 23.8065 24.2019 24.0764 24.3141 24.3022V24.4427H22.0545ZM19.9312 22.8315C20.1555 22.8315 20.3639 22.8039 20.5561 22.7489C20.7485 22.6937 20.922 22.6221 21.077 22.534C21.2319 22.4458 21.3654 22.3467 21.4776 22.2365C21.5898 22.1209 21.6779 22.0051 21.742 21.8895V20.3526H20.6042C20.257 20.3526 19.9606 20.3884 19.7148 20.4599C19.4691 20.5261 19.2688 20.6225 19.1139 20.7492C18.959 20.8703 18.8441 21.0191 18.7693 21.1954C18.6945 21.3661 18.6572 21.5534 18.6572 21.7573C18.6572 22.0658 18.7613 22.3219 18.9696 22.5258C19.1833 22.7295 19.5038 22.8315 19.9312 22.8315Z" fill="white"/>
</svg>
