<svg width="44" height="44" viewBox="0 0 44 44" fill="none" xmlns="http://www.w3.org/2000/svg">
<path d="M22 41.9999C33.0456 41.9999 41.9999 33.0456 41.9999 22C41.9999 10.9543 33.0456 2 22 2C10.9543 2 2 10.9543 2 22C2 33.0456 10.9543 41.9999 22 41.9999Z" stroke="white" stroke-width="3.40977"/>
<path d="M24.3699 29.2274C24.2728 29.0331 24.1903 28.8097 24.1224 28.5573C24.0543 28.3047 23.9961 28.0376 23.9475 27.756C23.7241 27.9988 23.4667 28.2271 23.1754 28.4407C22.884 28.6544 22.5587 28.8438 22.1993 29.0089C21.8497 29.1642 21.4611 29.2857 21.0338 29.373C20.6065 29.4701 20.1452 29.5188 19.6498 29.5188C18.8438 29.5188 18.1007 29.4022 17.4209 29.1691C16.7507 28.936 16.1728 28.6107 15.6873 28.1931C15.2016 27.7755 14.8228 27.2801 14.5509 26.7071C14.2789 26.1243 14.1431 25.4931 14.1431 24.8132C14.1431 23.1524 14.7597 21.8704 15.9932 20.9671C17.2364 20.0543 19.0866 19.5978 21.5438 19.5978H23.8019V18.6654C23.8019 17.9077 23.5542 17.3105 23.0588 16.8735C22.5636 16.4267 21.8497 16.2033 20.9173 16.2033C20.0918 16.2033 19.4896 16.383 19.1108 16.7423C18.7321 17.092 18.5426 17.5631 18.5426 18.1554H14.4926C14.4926 17.4853 14.6383 16.8492 14.9296 16.247C15.2308 15.6449 15.663 15.1155 16.2263 14.659C16.7993 14.2025 17.4938 13.8433 18.3095 13.581C19.1351 13.3091 20.0772 13.1731 21.1358 13.1731C22.0876 13.1731 22.9714 13.2896 23.7873 13.5227C24.6128 13.7558 25.3266 14.1007 25.9287 14.557C26.5309 15.0135 27.002 15.5914 27.3419 16.2907C27.6819 16.9803 27.8519 17.7816 27.8519 18.6944V25.4543C27.8519 26.2992 27.9052 26.9985 28.0121 27.5521C28.1189 28.1057 28.2743 28.5816 28.4783 28.9797V29.2274H24.3699ZM20.5094 26.3866C20.9173 26.3866 21.2961 26.3381 21.6457 26.241C21.9954 26.1437 22.311 26.0175 22.5926 25.8621C22.8743 25.7067 23.117 25.5319 23.3211 25.3376C23.525 25.1337 23.6852 24.9297 23.8019 24.7258V22.0161H21.7331C21.1019 22.0161 20.5628 22.0793 20.116 22.2054C19.6692 22.322 19.3051 22.492 19.0234 22.7154C18.7418 22.929 18.5329 23.1913 18.397 23.5021C18.261 23.8031 18.1931 24.1333 18.1931 24.4927C18.1931 25.0366 18.3824 25.4882 18.7611 25.8476C19.1497 26.2069 19.7324 26.3866 20.5094 26.3866Z" fill="white"/>
</svg>
