<svg width="17" height="16" viewBox="0 0 17 16" fill="none" xmlns="http://www.w3.org/2000/svg">
<path d="M11.9177 14.8968H6.07493C5.66408 14.898 5.26756 14.7458 4.96296 14.4701C4.65836 14.1944 4.46761 13.8149 4.42804 13.406L3.48183 3.91689C3.47403 3.84018 3.48242 3.76269 3.50647 3.68943C3.53052 3.61617 3.56969 3.54877 3.62144 3.49161C3.67319 3.43445 3.73637 3.3888 3.80689 3.35761C3.87741 3.32642 3.95369 3.31038 4.0308 3.31055H13.9618C14.0389 3.31055 14.1151 3.3267 14.1855 3.35795C14.256 3.3892 14.3191 3.43485 14.3708 3.49198C14.4225 3.5491 14.4617 3.61642 14.4858 3.68961C14.5099 3.76279 14.5184 3.84022 14.5108 3.91689L13.5646 13.4054C13.525 13.8144 13.3343 14.194 13.0297 14.4698C12.7251 14.7456 12.3286 14.8978 11.9177 14.8968ZM4.6399 4.414L5.52597 13.2962C5.53928 13.4325 5.60289 13.5589 5.70439 13.6508C5.80589 13.7427 5.938 13.7935 6.07493 13.7933H11.9177C12.0546 13.7935 12.1867 13.7427 12.2882 13.6508C12.3897 13.5589 12.4534 13.4325 12.4667 13.2962L13.3527 4.414H4.6399Z" fill="currentColor"/>
<path d="M15.341 4.414H2.65133C2.50501 4.414 2.36467 4.35587 2.26121 4.2524C2.15774 4.14893 2.09961 4.0086 2.09961 3.86227C2.09961 3.71594 2.15774 3.57561 2.26121 3.47214C2.36467 3.36867 2.50501 3.31055 2.65133 3.31055H15.341C15.4873 3.31055 15.6276 3.36867 15.7311 3.47214C15.8346 3.57561 15.8927 3.71594 15.8927 3.86227C15.8927 4.0086 15.8346 4.14893 15.7311 4.2524C15.6276 4.35587 15.4873 4.414 15.341 4.414ZM8.99616 12.6899C8.84983 12.6899 8.7095 12.6317 8.60603 12.5283C8.50256 12.4248 8.44444 12.2845 8.44444 12.1381V6.06917C8.44444 5.92284 8.50256 5.78251 8.60603 5.67904C8.7095 5.57557 8.84983 5.51744 8.99616 5.51744C9.14249 5.51744 9.28282 5.57557 9.38629 5.67904C9.48976 5.78251 9.54789 5.92284 9.54789 6.06917V12.1381C9.54789 12.2845 9.48976 12.4248 9.38629 12.5283C9.28282 12.6317 9.14249 12.6899 8.99616 12.6899ZM7.06457 12.6899C6.92693 12.6897 6.79431 12.6382 6.69274 12.5453C6.59118 12.4524 6.528 12.3249 6.51561 12.1878L5.96389 6.11882C5.9507 5.97317 5.99589 5.82824 6.08952 5.71588C6.18314 5.60353 6.31755 5.53295 6.4632 5.51965C6.60893 5.50677 6.75385 5.55212 6.86623 5.64579C6.97862 5.73947 7.04934 5.87384 7.06292 6.01951L7.61464 12.0885C7.62155 12.1649 7.61245 12.2418 7.58793 12.3145C7.56342 12.3872 7.52403 12.4539 7.47227 12.5105C7.42051 12.5671 7.35752 12.6123 7.28732 12.6432C7.21713 12.674 7.14126 12.6899 7.06457 12.6899ZM10.9277 12.6899C10.8511 12.6899 10.7752 12.674 10.705 12.6432C10.6348 12.6123 10.5718 12.5671 10.5201 12.5105C10.4683 12.4539 10.4289 12.3872 10.4044 12.3145C10.3799 12.2418 10.3708 12.1649 10.3777 12.0885L10.9294 6.01951C10.9575 5.71606 11.2224 5.49758 11.5291 5.51965C11.6748 5.53295 11.8092 5.60353 11.9028 5.71588C11.9964 5.82824 12.0416 5.97317 12.0284 6.11882L11.4767 12.1878C11.4643 12.3249 11.4011 12.4524 11.2996 12.5453C11.198 12.6382 11.0654 12.6897 10.9277 12.6899Z" fill="currentColor"/>
<path d="M11.4787 4.41386H6.51315C6.36682 4.41386 6.22649 4.35573 6.12302 4.25226C6.01955 4.1488 5.96143 4.00846 5.96143 3.86214V1.65524C5.96143 1.50891 6.01955 1.36858 6.12302 1.26511C6.22649 1.16164 6.36682 1.10352 6.51315 1.10352H11.4787C11.625 1.10352 11.7653 1.16164 11.8688 1.26511C11.9723 1.36858 12.0304 1.50891 12.0304 1.65524V3.86214C12.0304 4.00846 11.9723 4.1488 11.8688 4.25226C11.7653 4.35573 11.625 4.41386 11.4787 4.41386ZM7.06487 3.31041H10.9269V2.20696H7.06487V3.31041Z" fill="currentColor"/>
</svg>
