<svg width="16" height="16" viewBox="0 0 16 16" fill="none" xmlns="http://www.w3.org/2000/svg">
<path d="M8.00065 15.1667C4.04732 15.1667 0.833984 11.9534 0.833984 8.00004C0.833984 4.04671 4.04732 0.833374 8.00065 0.833374C11.954 0.833374 15.1673 4.04671 15.1673 8.00004C15.1673 11.9534 11.954 15.1667 8.00065 15.1667ZM8.00065 1.83337C4.60065 1.83337 1.83398 4.60004 1.83398 8.00004C1.83398 11.4 4.60065 14.1667 8.00065 14.1667C11.4007 14.1667 14.1673 11.4 14.1673 8.00004C14.1673 4.60004 11.4007 1.83337 8.00065 1.83337Z" fill="white" fill-opacity="0.6"/>
<path d="M6.11357 10.3867C5.9869 10.3867 5.86023 10.34 5.76023 10.24C5.5669 10.0467 5.5669 9.72666 5.76023 9.53332L9.53357 5.75999C9.7269 5.56666 10.0469 5.56666 10.2402 5.75999C10.4336 5.95332 10.4336 6.27332 10.2402 6.46666L6.4669 10.24C6.37357 10.34 6.24023 10.3867 6.11357 10.3867Z" fill="white" fill-opacity="0.6"/>
<path d="M9.8869 10.3867C9.76023 10.3867 9.63357 10.34 9.53357 10.24L5.76023 6.46666C5.5669 6.27332 5.5669 5.95332 5.76023 5.75999C5.95357 5.56666 6.27357 5.56666 6.4669 5.75999L10.2402 9.53332C10.4336 9.72666 10.4336 10.0467 10.2402 10.24C10.1402 10.34 10.0136 10.3867 9.8869 10.3867Z" fill="white" fill-opacity="0.6"/>
</svg>
