<svg width="43" height="28" viewBox="0 0 43 28" fill="none" xmlns="http://www.w3.org/2000/svg">
<path d="M34.8219 11.8625C34.8219 11.75 34.8406 11.6375 34.8406 11.525C34.8406 5.43125 29.9844 0.5 23.9938 0.5C19.6719 0.5 15.9594 3.06875 14.2156 6.78125C13.4563 6.39687 12.6031 6.17188 11.7031 6.17188C8.9375 6.17188 6.63125 8.225 6.19062 10.9062C2.87187 12.05 0.5 15.2281 0.5 18.9688C0.5 23.675 4.25937 27.5 8.89062 27.5H18.5V20H13.9813L21.5 12.1531L29.0188 19.9906H24.5V27.4906H34.8406C39.0781 27.4906 42.5 23.975 42.5 19.6719C42.5 15.3687 39.0594 11.8719 34.8219 11.8625Z" fill="#03D3FF"/>
</svg>
