<svg width="300" height="300" viewBox="0 0 300 300" fill="none" xmlns="http://www.w3.org/2000/svg">
<path d="M150 300C232.843 300 300 232.843 300 150C300 67.1573 232.843 0 150 0C67.1573 0 0 67.1573 0 150C0 232.843 67.1573 300 150 300Z" fill="white"/>
<path fill-rule="evenodd" clip-rule="evenodd" d="M164.25 132L159.75 156L202.5 162L199.5 173.25L157.5 167.25C154.5 177 153 187.5 149.25 196.5C145.5 207 141.75 217.5 137.25 227.25C131.25 240 120.75 249 106.5 251.25C98.25 252.75 89.25 252 82.5 246.75C80.25 245.25 78 242.25 78 240C78 237 79.5 233.25 81.75 231.75C83.25 231 87 231.75 89.25 232.5C91.5 234.75 93.75 237.75 95.25 240.75C99.75 246.75 105.75 247.5 111.75 243C118.5 237 122.25 228.75 124.5 220.5C129 202.5 133.5 185.25 137.25 167.25V164.25L97.5 158.25L99 147L140.25 153L145.5 129.75L102.75 123L104.25 111L148.5 117C150 112.5 150.75 108.75 152.25 105C156 91.5 159.75 78 168.75 66C177.75 54 188.25 46.5 204 47.25C210.75 47.25 217.5 49.5 222 54.75C222.75 55.5 224.25 57 224.25 58.5C224.25 61.5 224.25 65.25 222 67.5C219 69.75 215.25 69 212.25 66C210 63.75 208.5 61.5 206.25 59.25C201.75 53.25 195 52.5 189.75 57.75C186 61.5 182.25 66.75 180 72C174.75 87.75 171 104.25 165.75 120.75L207 126.75L204 138L164.25 132Z" fill="white"/>
</svg>
