<svg width="44" height="44" viewBox="0 0 44 44" fill="none" xmlns="http://www.w3.org/2000/svg">
<path fill-rule="evenodd" clip-rule="evenodd" d="M22 42.0008C11 42.0008 2 33.0008 2 21.9008C2.1 10.9008 11 1.90083 22.1 2.00083C33.1 2.10083 42 11.0008 42 22.2008C41.9 33.1008 33 42.0008 22 42.0008Z" fill="#0090FF"/>
<path fill-rule="evenodd" clip-rule="evenodd" d="M23.8999 19.6001L23.2999 22.8001L28.9999 23.6001L28.5999 25.1001L22.9999 24.3001C22.5999 25.6001 22.3999 27.0001 21.8999 28.2001C21.3999 29.6001 20.8999 31.0001 20.2999 32.3001C19.4999 34.0001 18.0999 35.2001 16.1999 35.5001C15.0999 35.7001 13.8999 35.6001 12.9999 34.9001C12.6999 34.7001 12.3999 34.3001 12.3999 34.0001C12.3999 33.6001 12.5999 33.1001 12.8999 32.9001C13.0999 32.8001 13.5999 32.9001 13.8999 33.0001C14.1999 33.3001 14.4999 33.7001 14.6999 34.1001C15.2999 34.9001 16.0999 35.0001 16.8999 34.4001C17.7999 33.6001 18.2999 32.5001 18.5999 31.4001C19.1999 29.0001 19.7999 26.7001 20.2999 24.3001V23.9001L14.9999 23.1001L15.1999 21.6001L20.6999 22.4001L21.3999 19.3001L15.6999 18.4001L15.8999 16.8001L21.7999 17.6001C21.9999 17.0001 22.0999 16.5001 22.2999 16.0001C22.7999 14.2001 23.2999 12.4001 24.4999 10.8001C25.6999 9.20008 27.0999 8.20008 29.1999 8.30008C30.0999 8.30008 30.9999 8.60008 31.5999 9.30008C31.6999 9.40008 31.8999 9.60008 31.8999 9.80008C31.8999 10.2001 31.8999 10.7001 31.5999 11.0001C31.1999 11.3001 30.6999 11.2001 30.2999 10.8001C29.9999 10.5001 29.7999 10.2001 29.4999 9.90008C28.8999 9.10008 27.9999 9.00008 27.2999 9.70008C26.7999 10.2001 26.2999 10.9001 25.9999 11.6001C25.2999 13.7001 24.7999 15.9001 24.0999 18.1001L29.5999 18.9001L29.1999 20.4001L23.8999 19.6001Z" fill="white"/>
</svg>
