<svg width="40" height="40" viewBox="0 0 40 40" fill="none" xmlns="http://www.w3.org/2000/svg">
<rect width="40" height="40" rx="20" fill="#F2F4F7" fill-opacity="0.04"/>
<g clip-path="url(#clip0_368_9641)">
<mask id="mask0_368_9641" style="mask-type:alpha" maskUnits="userSpaceOnUse" x="10" y="10" width="20" height="20">
<path fill-rule="evenodd" clip-rule="evenodd" d="M10 10H30V30H10V10Z" fill="white"/>
</mask>
<g mask="url(#mask0_368_9641)">
<path fill-rule="evenodd" clip-rule="evenodd" d="M20 29.9999C14.5 29.9999 10 25.4999 10 19.9499C10.05 14.4499 14.5 9.94988 20.05 9.99988C25.55 10.0499 30 14.4999 30 20.0999C29.95 25.5499 25.5 29.9999 20 29.9999Z" fill="#5098F4"/>
<path fill-rule="evenodd" clip-rule="evenodd" d="M20.9492 18.8L20.6492 20.4L23.4992 20.8L23.2992 21.55L20.4992 21.15C20.2992 21.8 20.1992 22.5 19.9492 23.1C19.6992 23.8 19.4492 24.5 19.1492 25.15C18.7492 26 18.0492 26.6 17.0992 26.75C16.5492 26.85 15.9492 26.8 15.4992 26.45C15.3492 26.35 15.1992 26.15 15.1992 26C15.1992 25.8 15.2992 25.55 15.4492 25.45C15.5492 25.4 15.7992 25.45 15.9492 25.5C16.0992 25.65 16.2492 25.85 16.3492 26.05C16.6492 26.45 17.0492 26.5 17.4492 26.2C17.8992 25.8 18.1492 25.25 18.2992 24.7C18.5992 23.5 18.8992 22.35 19.1492 21.15V20.95L16.4992 20.55L16.5992 19.8L19.3492 20.2L19.6992 18.65L16.8492 18.2L16.9492 17.4L19.8992 17.8C19.9992 17.5 20.0492 17.25 20.1492 17C20.3992 16.1 20.6492 15.2 21.2492 14.4C21.8492 13.6 22.5492 13.1 23.5992 13.15C24.0492 13.15 24.4992 13.3 24.7992 13.65C24.8492 13.7 24.9492 13.8 24.9492 13.9C24.9492 14.1 24.9492 14.35 24.7992 14.5C24.5992 14.65 24.3492 14.6 24.1492 14.4C23.9992 14.25 23.8992 14.1 23.7492 13.95C23.4492 13.55 22.9992 13.5 22.6492 13.85C22.3992 14.1 22.1492 14.45 21.9992 14.8C21.6492 15.85 21.3992 16.95 21.0492 18.05L23.7992 18.45L23.5992 19.2L20.9492 18.8Z" fill="white"/>
</g>
</g>
<defs>
<clipPath id="clip0_368_9641">
<rect width="20" height="20" fill="white" transform="translate(10 10)"/>
</clipPath>
</defs>
</svg>
