<svg width="41" height="40" viewBox="0 0 41 40" fill="none" xmlns="http://www.w3.org/2000/svg">
<rect x="0.5" width="40" height="40" rx="20" fill="#F2F4F7" fill-opacity="0.04"/>
<path fill-rule="evenodd" clip-rule="evenodd" d="M17.6114 26.7941H23.3892C25.6494 26.7941 27.1673 25.1784 27.1673 22.7742V17.2257C27.1673 14.8215 25.6494 13.2058 23.3899 13.2058H17.6114C15.3519 13.2058 13.834 14.8215 13.834 17.2257V22.7742C13.834 25.1784 15.3519 26.7941 17.6114 26.7941ZM18.1666 19.3205C17.2475 19.3205 16.5007 18.5584 16.5007 17.622C16.5007 16.6856 17.2475 15.9235 18.1666 15.9235C19.085 15.9235 19.8325 16.6856 19.8325 17.622C19.8325 18.5584 19.085 19.3205 18.1666 19.3205ZM25.7145 21.9933C25.9378 22.5767 25.8218 23.2778 25.5831 23.8556C25.3002 24.5427 24.7586 25.0629 24.0761 25.2901C23.7731 25.3911 23.4553 25.4353 23.1382 25.4353H17.5197C16.9606 25.4353 16.4659 25.2985 16.0603 25.044C15.8062 24.8842 15.7613 24.5153 15.9497 24.2763C16.2648 23.8766 16.5758 23.4755 16.8896 23.071C17.4876 22.2969 17.8905 22.0725 18.3383 22.2696C18.52 22.3509 18.7023 22.4729 18.89 22.6019C19.3901 22.9483 20.0853 23.4244 21.0011 22.9076C21.6277 22.5499 21.9912 21.9364 22.3077 21.4021L22.313 21.3931C22.3354 21.3556 22.3577 21.3182 22.3798 21.2808L22.3798 21.2808C22.4862 21.1014 22.5911 20.9244 22.7099 20.7614C22.8587 20.5574 23.4104 19.9193 24.125 20.3737C24.5802 20.6597 24.963 21.0468 25.3726 21.4611C25.5288 21.6196 25.6401 21.7998 25.7145 21.9933Z" fill="#006BE9"/>
</svg>
