<svg width="16" height="16" viewBox="0 0 16 16" fill="none" xmlns="http://www.w3.org/2000/svg">
<path d="M6.06065 6.00001C6.21739 5.55446 6.52675 5.17875 6.93395 4.93943C7.34116 4.70012 7.81991 4.61264 8.28544 4.69248C8.75096 4.77233 9.1732 5.01436 9.47737 5.3757C9.78154 5.73703 9.94802 6.19436 9.94732 6.66668C9.94732 8.00001 7.94732 8.66668 7.94732 8.66668M8.00065 11.3333H8.00732M14.6673 8.00001C14.6673 11.6819 11.6826 14.6667 8.00065 14.6667C4.31875 14.6667 1.33398 11.6819 1.33398 8.00001C1.33398 4.31811 4.31875 1.33334 8.00065 1.33334C11.6826 1.33334 14.6673 4.31811 14.6673 8.00001Z" stroke="white" stroke-width="1.33333" stroke-linecap="round" stroke-linejoin="round"/>
</svg>
