<svg width="40" height="40" viewBox="0 0 40 40" fill="none" xmlns="http://www.w3.org/2000/svg">
<rect width="40" height="40" rx="20" fill="#F2F4F7" fill-opacity="0.04"/>
<path d="M10 25.7047L19.9941 31.2729L29.9881 25.7047V14.5682L19.9941 9L10 14.5682V25.7047Z" fill="#469EA2"/>
<path d="M18.9722 10.3324L11.7146 14.3736C11.7265 14.4997 11.7265 14.6265 11.7146 14.7525L18.9603 18.7938C19.2582 18.5812 19.6189 18.4665 19.9894 18.4665C20.3599 18.4665 20.7207 18.5812 21.0186 18.7938L28.2643 14.7525C28.2524 14.6265 28.2524 14.4997 28.2643 14.3736L21.0305 10.3324C20.7326 10.5449 20.3718 10.6596 20.0013 10.6596C19.6308 10.6596 19.2701 10.5449 18.9722 10.3324ZM28.9662 15.8661L21.7087 19.9533C21.748 20.3078 21.6702 20.6652 21.4865 20.9745C21.3027 21.2838 21.0224 21.5291 20.6855 21.6755L20.6974 29.7121C20.8147 29.762 20.9263 29.8236 21.0305 29.8958L28.2762 25.8545C28.2368 25.5 28.3146 25.1426 28.4984 24.8333C28.6821 24.524 28.9625 24.2787 29.2994 24.1324V16.0498C29.1834 15.9974 29.072 15.9359 28.9662 15.8661ZM11.0245 15.9121C10.9204 15.9843 10.8087 16.0458 10.6914 16.0958V24.1783C11.0324 24.3194 11.3166 24.5638 11.5012 24.8744C11.6858 25.185 11.7607 25.5451 11.7146 25.9004L18.9603 29.9417C19.0645 29.8695 19.1761 29.8079 19.2934 29.758V21.6755C18.9524 21.5343 18.6682 21.29 18.4836 20.9794C18.2991 20.6687 18.2242 20.3086 18.2702 19.9533L11.0245 15.9121Z" fill="#6ACAD1"/>
<path d="M19.9941 10.2057L28.9292 15.1884V25.1423L19.9941 30.125L11.0589 25.1423V15.1769L19.9941 10.2057ZM19.9941 9.02313L10 14.5914V25.7278L19.9941 31.296L29.9881 25.7278V14.5914L19.9941 9.02313Z" fill="#469EA2"/>
<path d="M20.0654 22.031H19.9227C19.6772 22.0316 19.434 21.9854 19.2071 21.895C18.9802 21.8046 18.774 21.6719 18.6004 21.5044C18.4269 21.3369 18.2893 21.1379 18.1956 20.919C18.102 20.7 18.0541 20.4653 18.0547 20.2285V20.0907C18.0541 19.8538 18.102 19.6191 18.1956 19.4002C18.2893 19.1812 18.4269 18.9823 18.6004 18.8148C18.774 18.6473 18.9802 18.5145 19.2071 18.4242C19.434 18.3338 19.6772 18.2876 19.9227 18.2882H20.0654C20.3109 18.2876 20.5541 18.3338 20.781 18.4242C21.0079 18.5145 21.2141 18.6473 21.3877 18.8148C21.5612 18.9823 21.6988 19.1812 21.7925 19.4002C21.8861 19.6191 21.934 19.8538 21.9334 20.0907V20.2285C21.934 20.4653 21.8861 20.7 21.7925 20.919C21.6988 21.1379 21.5612 21.3369 21.3877 21.5044C21.2141 21.6719 21.0079 21.8046 20.781 21.895C20.5541 21.9854 20.3109 22.0316 20.0654 22.031ZM20.0654 29.4361H19.9227C19.5908 29.4352 19.2647 29.5198 18.9781 29.6813C18.6915 29.8428 18.4549 30.0752 18.2927 30.3546L19.9941 31.296L21.6954 30.3546C21.5332 30.0752 21.2966 29.8428 21.01 29.6813C20.7234 29.5198 20.3973 29.4352 20.0654 29.4361ZM30 23.8679H29.9286C29.6831 23.8673 29.44 23.9135 29.213 24.0039C28.9861 24.0942 28.78 24.227 28.6064 24.3945C28.4328 24.562 28.2952 24.7609 28.2016 24.9799C28.1079 25.1989 28.0601 25.4335 28.0607 25.6704V25.8082C28.059 26.1142 28.1411 26.4152 28.2986 26.6807L30 25.7278V23.8679ZM28.2986 13.6499C28.1425 13.916 28.0605 14.2167 28.0607 14.5225V14.6602C28.0601 14.8971 28.1079 15.1318 28.2016 15.3507C28.2952 15.5697 28.4328 15.7686 28.6064 15.9361C28.78 16.1036 28.9861 16.2364 29.213 16.3268C29.44 16.4171 29.6831 16.4633 29.9286 16.4627H30V14.5914L28.2986 13.6499ZM19.9941 9.02313L18.2927 9.96456C18.4541 10.2454 18.6903 10.4797 18.9768 10.6431C19.2633 10.8066 19.5898 10.8934 19.9227 10.8945H20.0654C20.3973 10.8955 20.7234 10.8108 21.01 10.6494C21.2966 10.4879 21.5332 10.2554 21.6954 9.97604L19.9941 9.02313ZM11.7014 13.6384L10 14.5914V16.4627H10.0714C10.3169 16.4633 10.56 16.4171 10.787 16.3268C11.0139 16.2364 11.22 16.1036 11.3936 15.9361C11.5672 15.7686 11.7048 15.5697 11.7984 15.3507C11.8921 15.1318 11.9399 14.8971 11.9393 14.6602V14.5225C11.9353 14.2136 11.8536 13.9102 11.7014 13.6384ZM10.0714 23.8679H10V25.7278L11.7014 26.6807C11.8576 26.4146 11.9395 26.114 11.9393 25.8082V25.6704C11.9399 25.4335 11.8921 25.1989 11.7984 24.9799C11.7048 24.7609 11.5672 24.562 11.3936 24.3945C11.22 24.227 11.0139 24.0942 10.787 24.0039C10.56 23.9135 10.3169 23.8673 10.0714 23.8679Z" fill="#469EA2"/>
<path d="M19.9941 31.353V20.2051L10 14.6369V25.7848L19.9941 31.353Z" fill="#083B54" fill-opacity="0.15"/>
<path d="M29.998 25.6818V14.5454L20.0039 20.1136V31.2615L29.998 25.6818Z" fill="#083B54" fill-opacity="0.05"/>
</svg>
