<svg width="133" height="40" viewBox="0 0 133 40" fill="none" xmlns="http://www.w3.org/2000/svg">
<g clip-path="url(#clip0_446_7546)">
<path d="M34.176 15.8129L23.5192 21.6828V11.1431L34.176 15.8129Z" fill="#1A73EA"/>
<path d="M23.5192 11.1431V21.6828L11.5397 28.2772V17.7374L23.5192 11.1431Z" fill="#6C72DC"/>
<path d="M35.0589 25.0065L8.24261 39.417V30.0898L11.5397 28.2772L23.5192 21.6829L23.7765 21.7575L35.0589 25.0065Z" fill="#004BE9"/>
<path d="M34.176 15.8132L23.5192 21.6832L23.7765 21.7578L35.0589 25.0068L34.176 15.8132Z" fill="#1A7AF6"/>
<path d="M11.5397 17.7375V28.2773L0.879639 23.6043L11.5397 17.7375Z" fill="#6C7EE8"/>
<path d="M11.2823 17.6592L0 14.4102L0.882905 23.6038L11.5429 17.7369L11.2823 17.6592Z" fill="#93AAFD"/>
<path d="M26.8162 0V9.32726L23.5192 11.1429L11.5397 17.7373L11.2823 17.6626L0 14.4136L26.8162 0Z" fill="#2CDAFF"/>
<path d="M11.5397 17.7374L23.5192 21.6828V11.1431L11.5397 17.7374Z" fill="#1A62C5"/>
<mask id="mask0_446_7546" style="mask-type:luminance" maskUnits="userSpaceOnUse" x="43" y="8" width="90" height="25">
<path d="M133 8.26099H43.7826V32.2175H133V8.26099Z" fill="white"/>
</mask>
<g mask="url(#mask0_446_7546)">
<path d="M57.2176 13.0042L54.4118 13.895C54.2896 13.1789 53.9347 12.523 53.3468 11.9301C52.7589 11.3372 51.9098 11.0393 50.7993 11.0393C49.8821 11.0393 49.1238 11.3028 48.5246 11.827C47.9281 12.3511 47.6271 12.9812 47.6271 13.7145C47.6271 14.9891 48.3456 15.7853 49.7827 16.1004L52.4324 16.6503C54.0255 16.9654 55.2553 17.6041 56.1243 18.5637C56.9905 19.5261 57.4222 20.6689 57.4222 21.9979C57.4222 23.536 56.8371 24.8593 55.6671 25.9677C54.497 27.0762 52.9066 27.6318 50.8987 27.6318C48.7319 27.6318 47.0421 27.059 45.8323 25.9162C44.6196 24.7705 43.9351 23.4386 43.7789 21.9177L46.6899 21.0785C46.795 22.1268 47.2097 23.009 47.9367 23.725C48.6637 24.4411 49.652 24.7991 50.8987 24.7991C51.9722 24.7991 52.7987 24.5585 53.3809 24.0773C53.9602 23.5961 54.2499 22.9803 54.2499 22.2299C54.2499 21.6169 54.0341 21.09 53.5995 20.6431C53.165 20.1963 52.5602 19.8869 51.7792 19.7122L49.1805 19.1623C47.7493 18.8673 46.6104 18.2658 45.7698 17.355C44.9292 16.447 44.5089 15.3099 44.5089 13.9465C44.5089 12.3913 45.1251 11.0537 46.3548 9.93654C47.5845 8.8195 49.0585 8.26099 50.7738 8.26099C52.7305 8.26099 54.23 8.73648 55.2695 9.69028C56.3089 10.644 56.9592 11.7467 57.2176 13.0042Z" fill="white"/>
<path d="M61.5323 32.2177H58.5447V14.4737H61.4557V16.2037C61.7851 15.628 62.3048 15.1468 63.0147 14.763C63.7248 14.3792 64.5484 14.1873 65.4827 14.1873C67.3031 14.1873 68.7316 14.8117 69.7711 16.0605C70.8104 17.3093 71.3302 18.9047 71.3302 20.8438C71.3302 22.7829 70.7849 24.3869 69.6915 25.6528C68.601 26.9188 67.1611 27.5519 65.3776 27.5519C64.5114 27.5519 63.739 27.3857 63.0631 27.0535C62.3872 26.7212 61.876 26.3031 61.5295 25.7961V32.2177H61.5323ZM68.317 20.8438C68.317 19.6551 68.0046 18.6984 67.3827 17.9738C66.7578 17.2491 65.9371 16.8854 64.9147 16.8854C63.9094 16.8854 63.0915 17.2491 62.4581 17.9738C61.8248 18.6984 61.5096 19.6551 61.5096 20.8438C61.5096 22.0496 61.8248 23.0177 62.4581 23.7538C63.0915 24.4871 63.9094 24.8537 64.9147 24.8537C65.9201 24.8537 66.738 24.4871 67.3713 23.7538C67.9989 23.0177 68.317 22.0496 68.317 20.8438Z" fill="white"/>
<path d="M75.9565 19.7409V27.2366H72.9405V8.26099H75.9565V15.7052C76.7716 14.6396 77.9757 14.1069 79.5689 14.1069C81.0599 14.1069 82.2016 14.5795 82.9994 15.5219C83.7974 16.4642 84.1956 17.6815 84.1956 19.1652V27.2394H81.1792V19.6893C81.1792 18.8329 80.9719 18.1483 80.5544 17.6328C80.1398 17.1172 79.481 16.8595 78.5807 16.8595C77.7826 16.8595 77.155 17.1315 76.6978 17.6729C76.2377 18.2114 75.9906 18.9016 75.9565 19.7409Z" fill="white"/>
<path d="M95.2139 22.7828L97.7616 23.5962C97.3981 24.7677 96.7166 25.733 95.7228 26.492C94.7257 27.251 93.5015 27.632 92.0451 27.632C90.2442 27.632 88.7135 27.0133 87.4586 25.7702C86.203 24.53 85.5752 22.8688 85.5752 20.7893C85.5752 18.833 86.1856 17.2262 87.4074 15.9659C88.6284 14.7085 90.0707 14.0784 91.7353 14.0784C93.6749 14.0784 95.1916 14.677 96.2821 15.8743C97.3725 17.0715 97.921 18.6841 97.921 20.7091C97.921 21.2505 97.8954 21.5741 97.8409 21.68H88.5887C88.6226 22.6424 88.9745 23.4359 89.642 24.066C90.3095 24.6961 91.1108 25.0083 92.0451 25.0083C93.6725 25.0112 94.7282 24.2665 95.2139 22.7828ZM88.6656 19.4517H94.8761C94.8422 18.6468 94.5613 17.9766 94.0326 17.4324C93.5048 16.891 92.7464 16.6189 91.7584 16.6189C90.858 16.6189 90.1277 16.9025 89.5742 17.4696C89.0199 18.0425 88.7168 18.7012 88.6656 19.4517Z" fill="white"/>
<path d="M106.909 14.3932V17.4866C106.563 17.4351 106.233 17.4093 105.921 17.4093C103.652 17.4093 102.516 18.6581 102.516 21.1586V27.2394H99.503V14.4735H102.439V16.5185C102.735 15.8368 103.209 15.2984 103.868 14.9059C104.526 14.5135 105.271 14.3159 106.103 14.3159C106.381 14.3159 106.648 14.3417 106.909 14.3932Z" fill="white"/>
<path d="M113.563 14.0811C115.469 14.0811 117.042 14.7198 118.281 15.9944C119.519 17.2689 120.138 18.8872 120.138 20.8436C120.138 22.7998 119.519 24.4209 118.281 25.7042C117.042 26.9873 115.469 27.6318 113.563 27.6318C111.675 27.6318 110.11 26.9902 108.872 25.7042C107.633 24.4209 107.015 22.7998 107.015 20.8436C107.015 18.8872 107.633 17.2689 108.872 15.9944C110.11 14.7169 111.672 14.0811 113.563 14.0811ZM111.056 23.8167C111.74 24.5413 112.575 24.905 113.563 24.905C114.552 24.905 115.386 24.547 116.071 23.8309C116.756 23.1149 117.099 22.1181 117.099 20.8436C117.099 19.5861 116.758 18.6037 116.071 17.8934C115.386 17.1859 114.552 16.8308 113.563 16.8308C112.575 16.8308 111.74 17.183 111.056 17.8934C110.371 18.6008 110.027 19.5833 110.027 20.8436C110.027 22.101 110.369 23.092 111.056 23.8167Z" fill="white"/>
<path d="M124.761 19.8725V27.2364H121.745V14.4733H124.681V16.1776C125.079 15.4787 125.613 14.9574 126.281 14.6194C126.948 14.2786 127.661 14.1096 128.425 14.1096C129.915 14.1096 131.049 14.5822 131.83 15.5245C132.611 16.4669 133 17.6842 133 19.1678V27.2422H129.984V19.6892C129.984 18.8328 129.777 18.1482 129.359 17.6326C128.945 17.1171 128.285 16.8593 127.385 16.8593C126.553 16.8593 125.909 17.1428 125.449 17.71C124.991 18.2771 124.761 18.9989 124.761 19.8725Z" fill="white"/>
<path d="M133.002 26.6724H129.986V27.2395H133.002V26.6724Z" fill="#6424FF"/>
<path d="M84.1956 26.6724H81.1791V27.2395H84.1956V26.6724Z" fill="#6424FF"/>
<path d="M54.4125 13.895L57.2184 13.0042C57.1786 12.8065 57.1275 12.6118 57.0679 12.4199L54.2591 13.325C54.3245 13.5112 54.3784 13.7031 54.4125 13.895Z" fill="#6424FF"/>
<path d="M124.764 26.6724H121.748V27.2395H124.764V26.6724Z" fill="#3EEDBF"/>
<path d="M102.519 26.6724H99.503V27.2395H102.519V26.6724Z" fill="#3EEDBF"/>
<path d="M75.9565 26.6724H72.9405V27.2395H75.9565V26.6724Z" fill="#3EEDBF"/>
<path d="M43.8678 22.4821L46.7959 21.6343C46.756 21.4538 46.7135 21.2705 46.6964 21.0786L44.1206 21.8204L43.7826 21.9178C43.8025 22.1097 43.8309 22.2988 43.8678 22.4821Z" fill="#3EEDBF"/>
<path d="M61.5493 31.6504H58.5333V32.2175H61.5493V31.6504Z" fill="#3EEDBF"/>
<path d="M114.183 16.8996V14.1013C113.997 14.087 113.81 14.0784 113.617 14.0784V16.8481C113.813 16.8481 114.007 16.871 114.183 16.8996Z" fill="#6424FF"/>
<path d="M113.62 16.8481V14.0784H113.569C113.399 14.0784 113.219 14.087 113.057 14.0927V16.8824C113.219 16.8596 113.393 16.8452 113.569 16.8452H113.62V16.8481Z" fill="#3EEDBF"/>
<path d="M106.344 17.4439C106.531 17.4553 106.711 17.4582 106.909 17.4897V14.3963C106.727 14.3591 106.537 14.3362 106.344 14.3247V17.4439Z" fill="#6424FF"/>
<path d="M97.7616 23.5933L96.3391 23.1379L95.214 22.7827C95.152 22.9717 95.081 23.1464 95.0016 23.3126L97.5683 24.126C97.6426 23.9513 97.7046 23.7795 97.7616 23.5933Z" fill="#6424FF"/>
</g>
</g>
<defs>
<clipPath id="clip0_446_7546">
<rect width="133" height="39.6522" fill="white"/>
</clipPath>
</defs>
</svg>
