<svg width="130" height="45" viewBox="0 0 130 45" fill="none" xmlns="http://www.w3.org/2000/svg">
<path d="M50.4424 29.1815C54.0914 29.1815 56.6622 27.2191 56.6622 24.0072C56.6622 20.5006 53.7731 19.5928 51.0588 18.74C48.4632 17.9555 47.8009 17.3952 47.8009 16.3372C47.8009 15.3566 48.6347 14.6203 50.0546 14.6203C51.7939 14.6203 52.7241 15.5281 53.336 16.8281L56.177 15.184C55.026 12.7757 52.8664 11.3289 50.0501 11.3289C47.1117 11.3289 44.4175 13.1926 44.4175 16.4291C44.4175 19.6915 46.9649 20.7998 49.5851 21.5552C52.1324 22.2903 53.2833 22.7812 53.2833 24.0565C53.2833 25.0125 52.5728 25.8709 50.5399 25.8709C48.4106 25.8709 47.2092 24.841 46.5973 23.2463L43.707 24.9385C44.6372 27.4892 46.9402 29.1815 50.4424 29.1815Z" fill="white"/>
<path d="M64.6222 16.2327C62.8291 16.2327 61.5369 16.895 60.6549 18.0258V16.5767H57.4912V33.7423H60.6504V27.3914C61.5324 28.5188 62.8302 29.1845 64.6177 29.1845C67.8991 29.1845 70.5932 26.3637 70.5932 22.7103C70.5932 19.0568 67.9035 16.2327 64.6222 16.2327ZM64.0349 26.1653C62.0995 26.1653 60.6549 24.7667 60.6549 22.7069C60.6549 20.6471 62.0995 19.2496 64.0349 19.2496C65.9939 19.2496 67.4385 20.6471 67.4385 22.7069C67.4385 24.7667 65.9939 26.1653 64.0349 26.1653Z" fill="white"/>
<path d="M78.4102 16.2328C76.7696 16.2328 75.4965 16.8458 74.7613 17.9497V11.6738H71.6021V28.8383H74.7613V22.2173C74.7613 20.088 75.9122 19.1757 77.4509 19.1757C78.8709 19.1757 79.875 20.0342 79.875 21.7018V28.8383H83.0432V21.3095C83.0432 18.0528 81.0058 16.2328 78.4102 16.2328Z" fill="white"/>
<path d="M87.182 24.0069H96.4143C96.4943 23.5781 96.5355 23.1431 96.5375 22.7069C96.5375 19.1028 93.9656 16.2327 90.3412 16.2327C86.4962 16.2327 83.876 19.0534 83.876 22.7069C83.876 26.3603 86.4715 29.1811 90.5856 29.1811C92.939 29.1811 94.7736 28.2252 95.9245 26.5576L93.3783 25.0861C92.8393 25.7966 91.8598 26.3122 90.6349 26.3122C88.9695 26.3122 87.6224 25.6252 87.182 24.0069ZM87.1327 21.5548C87.5003 19.9859 88.6512 19.0781 90.3412 19.0781C91.6637 19.0781 92.9861 19.7886 93.3783 21.5548H87.1327Z" fill="white"/>
<path d="M100.677 18.6861V16.577H97.5181V28.8385H100.677V22.9772C100.677 20.3997 102.76 19.6667 104.4 19.8628V16.3315C102.857 16.3315 101.31 17.0185 100.677 18.6861Z" fill="white"/>
<path d="M111.075 29.1811C114.675 29.1811 117.565 26.3603 117.565 22.7069C117.565 19.0534 114.675 16.2327 111.075 16.2327C107.475 16.2327 104.61 19.0534 104.61 22.7069C104.61 26.3603 107.474 29.1811 111.075 29.1811ZM111.075 26.0914C109.214 26.0914 107.769 24.6939 107.769 22.7069C107.769 20.7199 109.214 19.3224 111.075 19.3224C112.96 19.3224 114.406 20.721 114.406 22.7069C114.406 24.6928 112.966 26.0914 111.075 26.0914Z" fill="white"/>
<path d="M125.371 16.2327C123.731 16.2327 122.458 16.8457 121.721 17.9496V16.5767H118.562V28.8382H121.721V22.2172C121.721 20.0878 122.873 19.1756 124.411 19.1756C125.832 19.1756 126.836 20.034 126.836 21.7016V28.8382H130V21.3094C130 18.0527 127.967 16.2327 125.371 16.2327Z" fill="white"/>
<path d="M28.618 0.768466V9.39778C28.6178 9.62157 28.5599 9.84154 28.45 10.0365C28.3401 10.2314 28.1818 10.3947 27.9904 10.5106L27.9366 10.542L25.9193 11.7042L14.1767 18.4575L12.7512 19.2767C12.7271 19.2873 12.7042 19.3004 12.6829 19.3159C12.5941 19.3754 12.5214 19.4559 12.4711 19.5502C12.4208 19.6445 12.3945 19.7498 12.3945 19.8566C12.3945 19.9635 12.4208 20.0687 12.4711 20.1631C12.5214 20.2574 12.5941 20.3378 12.6829 20.3974L12.7367 20.4287L14.3448 21.3612L19.8362 24.5215L19.9337 24.5787C20.0197 24.6382 20.09 24.7176 20.1385 24.8102C20.1871 24.9029 20.2124 25.0059 20.2124 25.1104C20.2124 25.215 20.1871 25.318 20.1385 25.4106C20.09 25.5032 20.0197 25.5827 19.9337 25.6422L19.8385 25.696L9.80492 31.4765L9.74889 31.509C9.55898 31.6132 9.34576 31.6676 9.12915 31.667C8.93523 31.6663 8.74386 31.6227 8.5688 31.5393L8.51277 31.5101L8.4276 31.4597L2.60897 28.1144L0.682502 27.0061C0.664571 26.9971 0.64664 26.9859 0.627588 26.9747C0.441523 26.8612 0.287289 26.7023 0.179312 26.513C0.0620415 26.3168 7.78777e-05 26.0926 1.14843e-06 25.8641V16.8593C-0.000292896 16.6387 0.0558829 16.4216 0.163184 16.2288C0.270484 16.0359 0.425341 15.8738 0.613019 15.7577C0.617321 15.7536 0.622237 15.7502 0.627588 15.7476C0.64877 15.7341 0.670864 15.7222 0.693709 15.7118L0.702674 15.705L2.60785 14.609L9.03725 10.9107L16.7857 6.45373L27.6026 0.233896C27.6196 0.221956 27.6376 0.21146 27.6564 0.202517C27.7513 0.149564 27.8582 0.121785 27.9668 0.121827C28.0523 0.12168 28.137 0.138376 28.2161 0.170962C28.2952 0.203548 28.367 0.251385 28.4276 0.311743C28.4881 0.372102 28.5362 0.443798 28.5691 0.52274C28.602 0.601681 28.6189 0.686321 28.6191 0.771828L28.618 0.768466Z" fill="#01ABFF"/>
<path d="M37.6551 19.2072V28.2119C37.6548 28.4354 37.597 28.655 37.487 28.8496C37.3771 29.0441 37.2188 29.207 37.0275 29.3225L36.9726 29.3539L35.0461 30.4634L32.612 31.8642L28.6201 34.1605L20.8694 38.6175L10.0547 44.8374C10.0374 44.8489 10.0194 44.8594 10.0009 44.8687C9.90556 44.9214 9.79829 44.9488 9.68935 44.9483C9.60385 44.9484 9.51915 44.9318 9.44009 44.8992C9.36104 44.8666 9.28918 44.8187 9.22861 44.7584C9.16804 44.698 9.11996 44.6263 9.0871 44.5474C9.05424 44.4685 9.03726 44.3838 9.03711 44.2983V35.669C9.03691 35.4454 9.09461 35.2256 9.20459 35.031C9.31457 34.8364 9.47309 34.6735 9.6647 34.5584C9.69047 34.5416 9.71849 34.527 9.74427 34.5136L11.7391 33.3648L23.4783 26.6116L24.8848 25.8024L24.9756 25.7509L24.9845 25.7453C25.0706 25.6854 25.141 25.6057 25.1895 25.5128C25.2381 25.4199 25.2635 25.3166 25.2636 25.2118C25.2627 25.1052 25.236 25.0004 25.1859 24.9064C25.1357 24.8123 25.0636 24.7318 24.9756 24.6716C24.9548 24.6578 24.9331 24.6455 24.9106 24.6347L23.3102 23.709L17.8188 20.5475L17.7135 20.4859C17.6295 20.4262 17.5611 20.3473 17.5138 20.2558C17.4666 20.1642 17.4419 20.0627 17.4419 19.9597C17.4419 19.8567 17.4666 19.7552 17.5138 19.6636C17.5611 19.5721 17.6295 19.4932 17.7135 19.4335L17.8256 19.3708C17.8308 19.3671 17.8364 19.3641 17.8424 19.3618L27.8524 13.6015L27.9308 13.5566C28.1175 13.4591 28.3249 13.4082 28.5354 13.4082C28.746 13.4082 28.9534 13.4591 29.1401 13.5566L29.2252 13.6059L35.0595 16.9613L36.986 18.0708C37.0047 18.08 37.0226 18.0905 37.0398 18.1022C37.226 18.2151 37.3803 18.3736 37.4881 18.5628C37.6043 18.7596 37.6651 18.9842 37.664 19.2128L37.6551 19.2072Z" fill="#0057FF"/>
</svg>
