<svg width="40" height="40" viewBox="0 0 40 40" fill="none" xmlns="http://www.w3.org/2000/svg">
<rect width="40" height="40" rx="20" fill="#F2F4F7" fill-opacity="0.04"/>
<path d="M29.4954 18.0207L23.416 21.3693V15.3567L29.4954 18.0207Z" fill="#1A73EA"/>
<path d="M23.416 15.3567V21.3693L16.582 25.1312V19.1185L23.416 15.3567Z" fill="#6C72DC"/>
<path d="M29.999 23.2653L14.7012 31.486V26.1652L16.582 25.1311L23.416 21.3693L23.5628 21.4118L29.999 23.2653Z" fill="#004BE9"/>
<path d="M29.4954 18.0208L23.416 21.3694L23.5628 21.412L29.999 23.2654L29.4954 18.0208Z" fill="#1A7AF6"/>
<path d="M16.5832 19.1187V25.1313L10.502 22.4655L16.5832 19.1187Z" fill="#6C7EE8"/>
<path d="M16.4362 19.0739L10 17.2205L10.5037 22.4651L16.5849 19.1183L16.4362 19.0739Z" fill="#93AAFD"/>
<path d="M25.2978 9V14.3209L23.417 15.3567L16.583 19.1186L16.4362 19.076L10 17.2225L25.2978 9Z" fill="#2CDAFF"/>
<path d="M16.582 19.1185L23.416 21.3693V15.3567L16.582 19.1185Z" fill="#1A62C5"/>
</svg>
