<svg width="1440" height="963" viewBox="0 0 1440 963" fill="none" xmlns="http://www.w3.org/2000/svg">
<rect width="1440" height="864" fill="url(#paint0_linear_451_6525)"/>
<mask id="mask0_451_6525" style="mask-type:alpha" maskUnits="userSpaceOnUse" x="0" y="0" width="1440" height="864">
<rect width="1440" height="864" fill="url(#paint1_linear_451_6525)"/>
</mask>
<g mask="url(#mask0_451_6525)">
<g filter="url(#filter0_f_451_6525)">
<ellipse cx="700" cy="955" rx="643" ry="103" fill="#1D4AE0"/>
</g>
<g filter="url(#filter1_f_451_6525)">
<ellipse cx="702" cy="955" rx="643" ry="103" fill="#CC8EF7"/>
</g>
</g>
<g clip-path="url(#clip0_451_6525)">
<path style="mix-blend-mode:color-dodge" d="M371.34 681.083L310.621 655.006L309.671 655.416L370.39 681.493L371.34 681.083ZM366.619 683.107L305.901 657.03L304.951 657.439L365.669 683.516L366.619 683.107ZM357.178 687.162L296.459 661.085L295.509 661.494L356.228 687.571L357.178 687.162ZM338.305 695.271L277.587 669.194L276.637 669.604L337.355 695.681L338.305 695.271ZM347.746 691.217L287.028 665.14L286.078 665.549L346.796 691.626L347.746 691.217ZM352.467 689.193L291.749 663.116L290.799 663.525L351.517 689.602L352.467 689.193ZM361.908 685.138L301.19 659.061L300.24 659.47L360.958 685.547L361.908 685.138ZM376.06 679.06L315.342 652.983L314.392 653.392L375.11 679.469L376.06 679.06ZM390.212 672.981L329.494 646.904L328.544 647.313L389.262 673.39L390.212 672.981ZM343.026 693.248L282.307 667.171L281.357 667.58L342.076 693.657L343.026 693.248ZM385.492 675.005L324.773 648.928L323.823 649.337L384.542 675.414L385.492 675.005ZM380.771 677.029L320.053 650.952L319.103 651.361L379.821 677.438L380.771 677.029ZM705.696 537.477L644.977 511.4L644.027 511.809L704.746 537.887L705.696 537.477ZM682.102 547.611L621.384 521.533L620.434 521.943L681.152 548.02L682.102 547.611ZM686.823 545.587L626.105 519.51L625.155 519.919L685.873 545.996L686.823 545.587ZM719.858 531.399L659.139 505.322L658.189 505.731L718.908 531.808L719.858 531.399ZM724.578 529.375L663.86 503.298L662.91 503.707L723.628 529.784L724.578 529.375ZM715.137 533.43L654.419 507.353L653.468 507.762L714.187 533.839L715.137 533.43ZM729.299 527.352L668.581 501.274L667.63 501.684L728.349 527.761L729.299 527.352ZM734.02 525.328L673.301 499.251L672.351 499.66L733.069 525.737L734.02 525.328ZM691.554 543.571L630.835 517.494L629.885 517.903L690.604 543.98L691.554 543.571ZM700.995 539.516L640.277 513.439L639.327 513.848L700.045 539.925L700.995 539.516ZM696.274 541.54L635.556 515.462L634.606 515.872L695.324 541.949L696.274 541.54ZM710.426 535.461L649.708 509.384L648.758 509.793L709.476 535.87L710.426 535.461ZM682.132 831.609L742.851 857.686L743.801 857.276L683.083 831.199L682.132 831.609ZM677.412 833.632L738.13 859.709L739.08 859.3L678.362 833.223L677.412 833.632ZM672.691 835.656L733.41 861.733L734.36 861.324L673.641 835.247L672.691 835.656ZM686.843 829.577L747.561 855.655L748.512 855.245L687.793 829.168L686.843 829.577ZM667.971 837.687L728.689 863.764L729.639 863.355L668.921 837.278L667.971 837.687ZM715.157 817.421L775.875 843.498L776.825 843.088L716.107 817.011L715.157 817.421ZM710.436 819.444L771.155 845.521L772.105 845.112L711.386 819.035L710.436 819.444ZM705.716 821.468L766.434 847.545L767.384 847.136L706.666 821.059L705.716 821.468ZM719.868 815.389L780.586 841.467L781.536 841.057L720.818 814.98L719.868 815.389ZM691.554 827.546L752.272 853.623L753.222 853.214L692.504 827.137L691.554 827.546ZM700.995 823.492L761.713 849.569L762.664 849.159L701.945 823.082L700.995 823.492ZM696.274 825.515L756.993 851.592L757.943 851.183L697.225 825.106L696.274 825.515ZM1049.51 673.8L1110.23 699.877L1111.18 699.467L1050.46 673.39L1049.51 673.8ZM1054.23 671.776L1114.95 697.853L1115.9 697.444L1055.18 671.367L1054.23 671.776ZM1063.67 667.721L1124.39 693.798L1125.34 693.389L1064.63 667.312L1063.67 667.721ZM1058.95 669.745L1119.67 695.822L1120.62 695.413L1059.9 669.336L1058.95 669.745ZM1044.79 675.823L1105.51 701.9L1106.46 701.491L1045.74 675.414L1044.79 675.823ZM1016.48 687.98L1077.2 714.057L1078.15 713.648L1017.43 687.571L1016.48 687.98ZM1040.07 677.847L1100.79 703.924L1101.74 703.515L1041.02 677.438L1040.07 677.847ZM1021.2 685.957L1081.92 712.034L1082.87 711.624L1022.15 685.547L1021.2 685.957ZM1011.76 690.011L1072.48 716.088L1073.43 715.679L1012.71 689.602L1011.76 690.011ZM1025.91 683.933L1086.63 710.01L1087.58 709.601L1026.86 683.524L1025.91 683.933ZM1035.35 679.878L1096.07 705.955L1097.02 705.546L1036.3 679.469L1035.35 679.878ZM1030.63 681.902L1091.35 707.979L1092.3 707.57L1031.58 681.493L1030.63 681.902ZM474.314 818.261L557.805 782.401H524.391L477.314 802.622C476.344 802.384 475.104 802.444 474.284 802.794C473.294 803.218 473.294 803.91 474.284 804.334C475.274 804.758 476.874 804.758 477.864 804.334C478.684 803.984 478.815 803.448 478.264 803.032L524.951 782.981H554.555L473.364 817.852L474.314 818.261ZM500.708 821.103C499.717 821.527 499.717 822.219 500.708 822.643C501.698 823.067 503.298 823.067 504.288 822.643C505.108 822.294 505.238 821.758 504.688 821.341L546.824 803.247L545.874 802.838L503.738 820.932C502.768 820.694 501.528 820.754 500.708 821.103ZM421.127 731.251L532.832 683.278L531.882 682.869L420.176 730.842L421.127 731.251ZM418.076 711.84V696.7H416.726V712.078L425.887 716.014L482.985 691.492L318.172 620.708L317.222 621.117L481.085 691.492L425.887 715.196L418.076 711.84ZM414.136 721.066L419.796 718.633L410.615 714.69V698.523L391.112 706.9L400.994 711.148L401.944 710.739L393.013 706.9L409.265 699.921V714.928L417.886 718.633L414.136 720.247L387.842 708.953L386.892 709.363L414.146 721.066H414.136ZM487.436 822.361C488.256 822.004 488.386 821.475 487.836 821.059L545.324 796.373L544.374 795.964L486.886 820.65C485.915 820.411 484.675 820.471 483.855 820.821C482.865 821.245 482.865 821.937 483.855 822.361C484.845 822.785 486.446 822.785 487.436 822.361ZM527.701 841.191L528.651 841.6L582.589 818.432V809.631L599.571 816.922L535.392 844.487L536.342 844.896L601.471 816.922L581.239 808.232V818.187L527.691 841.184L527.701 841.191ZM396.633 681.649L359.498 697.6L382.071 707.294L419.206 691.343L396.633 681.649ZM417.306 691.343L382.071 706.476L361.398 697.6L396.623 682.467L417.296 691.343H417.306ZM611.673 844.919L610.723 844.509L585.699 855.26L586.649 855.669L611.673 844.919ZM554.465 845.73L611.563 821.208L662.9 843.252H636.896L610.353 831.854L558.155 854.271L559.106 854.68L610.353 832.672L636.336 843.832H666.15L611.563 820.389L553.515 845.32L554.465 845.73ZM644.957 840.358L612.393 826.371L560.896 848.49L561.846 848.899L612.393 827.189L643.997 840.767L644.947 840.358H644.957ZM619.774 852.53L586.939 866.636L587.889 867.045L620.724 852.939L619.774 852.53ZM615.793 873.659L671.171 849.874H651.558L605.982 869.448L606.932 869.857L652.118 850.454H667.92L614.833 873.25L615.783 873.659H615.793ZM462.562 691.775L428.428 706.431V688.873L396.663 675.236L343.166 698.21L413.346 728.349L501.298 690.577L317.582 611.676L316.632 612.085L499.397 690.577L413.346 727.531L345.076 698.21L396.663 676.054L427.077 689.119V707.837L464.463 691.782L297.29 619.986L155 681.121L155.95 681.53L297.33 620.812L462.592 691.789L462.562 691.775ZM679.852 849.717L613.703 878.131L614.653 878.54L679.852 850.536L732.499 873.146L802.119 843.245L679.392 790.533L678.442 790.942L800.219 843.245L732.499 872.327L679.852 849.717ZM633.666 853.951L617.564 847.032L588.02 859.724L576.088 854.598L612.073 839.145L629.825 846.771H671.381V846.191H630.385L612.073 838.327L574.188 854.598L588.03 860.543L617.574 847.85L631.776 853.951L594.53 869.887L595.481 870.296L633.676 853.951H633.666ZM465.473 814.459L466.423 814.869L532.092 786.664L531.142 786.255L465.473 814.459ZM793.108 558.287L765.854 546.584L764.904 546.993L791.197 558.287L787.447 559.894L778.826 556.189H743.881L760.133 549.21L769.064 553.049L770.015 552.64L760.133 548.392L740.63 556.769H778.266L787.447 560.712L793.098 558.287H793.108ZM738.47 534.821L701.335 550.773L723.908 560.467L761.043 544.516L738.47 534.821ZM759.143 544.516L723.918 559.648L703.245 550.773L738.47 535.64L759.143 544.516ZM708.656 450.251L573.357 508.357L593.08 516.831L728.419 458.748L708.696 450.274L708.656 450.251ZM726.479 458.725L593.09 516.013L575.268 508.357L708.696 451.092L726.519 458.748L726.479 458.725ZM772.185 559.395H736.38V559.976H771.625L779.436 563.331L724.238 587.035L560.376 516.66L559.426 517.07L724.238 587.853L781.336 563.331L772.175 559.395H772.185ZM739.9 527.805L686.403 550.78L718.167 564.417H759.053L724.918 579.074L559.656 508.097L701.075 447.409L700.125 447L557.795 508.127L724.968 579.922L762.353 563.867H718.777L688.363 550.802L739.96 528.646L808.23 557.967L722.178 594.921L539.413 516.43L538.463 516.839L722.178 595.74L810.13 557.967L739.95 527.828L739.9 527.805ZM707.206 456.27L587.369 507.74L594.52 510.813L714.357 459.343L707.206 456.27ZM712.457 459.343L594.52 509.994L589.27 507.74L707.206 457.089L712.457 459.343ZM865.258 644.695C866.078 644.345 866.208 643.809 865.658 643.393L917.725 621.028V599.549L831.743 636.481L832.693 636.89L916.385 600.948V620.797L864.708 642.991C863.737 642.753 862.497 642.812 861.677 643.162C860.687 643.586 860.687 644.278 861.677 644.702C862.667 645.126 864.267 645.126 865.258 644.702V644.695ZM905.423 617.107C906.413 616.683 906.413 615.991 905.423 615.567C904.433 615.143 902.833 615.143 901.843 615.567C901.023 615.917 900.893 616.452 901.443 616.869L828.383 648.243C827.412 648.005 826.172 648.065 825.352 648.415C824.362 648.839 824.362 649.531 825.352 649.955C826.342 650.379 827.943 650.379 828.933 649.955C829.753 649.605 829.883 649.069 829.333 648.653L902.393 617.278C903.363 617.516 904.603 617.457 905.423 617.107ZM830.493 548.689L883.7 525.841L882.75 525.432L829.153 548.451V563.264L702.265 617.762L587.079 568.294V550.229L523.851 523.074L522.901 523.483L585.739 550.467V568.532L702.265 618.58L830.493 563.51V548.697V548.689ZM705.106 609.258L816.811 561.285L815.861 560.876L704.155 608.849L705.106 609.258ZM687.973 603.023L688.923 602.614L605.602 566.828V554.53L703.235 596.461L704.185 596.052L604.252 553.131V567.066L687.973 603.023ZM786.117 489.304L730.739 513.089H750.352L795.928 493.515L794.978 493.105L749.792 512.509H733.99L787.077 489.713L786.127 489.304H786.117ZM842.805 508.283L791.557 530.29L765.574 519.13H735.76L790.347 542.574L848.395 517.642L847.445 517.233L790.347 541.755L739.01 519.711H765.014L791.557 531.109L843.755 508.692L842.805 508.283ZM722.068 513.245L788.217 484.832L787.267 484.423L722.068 512.427L669.421 489.817L599.801 519.718L722.528 572.43L723.478 572.021L601.701 519.718L669.421 490.635L722.068 513.245ZM911.914 594.631C910.924 594.207 909.324 594.207 908.334 594.631C907.513 594.981 907.383 595.516 907.933 595.933L803.739 640.684L804.689 641.094L908.884 596.342C909.854 596.58 911.094 596.521 911.914 596.171C912.904 595.747 912.904 595.055 911.914 594.631ZM756.963 522.605L789.527 536.592L841.024 514.473L840.074 514.064L789.527 535.774L757.913 522.196L756.963 522.605ZM866.528 518.468L865.578 518.059L800.449 546.033L820.682 554.723V544.768L874.229 521.772L873.279 521.362L819.341 544.53V553.332L802.359 546.041L866.538 518.476L866.528 518.468ZM790.257 518.044L791.207 518.453L816.231 507.703L815.281 507.293L790.257 518.044ZM728.379 473.092L701.765 484.52L723.618 493.909L750.232 482.481L728.379 473.092ZM748.332 482.481L723.628 493.091L703.675 484.52L728.379 473.91L748.332 482.481ZM768.264 509.005L784.367 515.924L813.911 503.231L825.842 508.357L789.857 523.81L772.105 516.184H730.549V516.764H771.545L789.857 524.629L827.742 508.357L813.901 502.413L784.357 515.105L770.165 509.005L807.41 493.068L806.46 492.659L768.264 509.005ZM729.789 467.147L687.923 485.13L722.208 499.853L764.074 481.871L729.789 467.147ZM762.163 481.871L722.208 499.035L689.834 485.13L729.789 467.966L762.163 481.871ZM782.146 510.426L814.981 496.319L814.031 495.91L781.196 510.016L782.146 510.426ZM731.469 460.05L671.391 485.851L720.518 506.951L780.596 481.149L731.469 460.05ZM778.686 481.149L720.518 506.133L673.301 485.851L731.469 460.868L778.686 481.149ZM899.472 590.829C898.652 591.179 898.522 591.715 899.072 592.131L794.878 636.883L795.828 637.292L900.022 592.54C900.993 592.779 902.233 592.719 903.053 592.369C904.043 591.945 904.043 591.253 903.053 590.829C902.063 590.405 900.462 590.405 899.472 590.829ZM573.568 649.969C574.558 650.394 576.158 650.394 577.148 649.969C578.138 649.545 578.138 648.853 577.148 648.429C576.328 648.08 575.078 648.02 574.118 648.258L501.058 616.884C501.608 616.467 501.478 615.932 500.657 615.582C499.667 615.158 498.067 615.158 497.077 615.582C496.087 616.006 496.087 616.698 497.077 617.122C497.897 617.472 499.147 617.531 500.107 617.293L573.167 648.667C572.617 649.084 572.747 649.62 573.568 649.969ZM598.761 640.684L494.567 595.933C495.117 595.516 494.987 594.981 494.167 594.631C493.176 594.207 491.576 594.207 490.586 594.631C489.596 595.055 489.596 595.747 490.586 596.171C491.406 596.521 492.656 596.58 493.617 596.342L597.811 641.094L598.761 640.684ZM891.591 774.276L805.609 737.344L804.659 737.753L888.351 773.696H842.144L790.467 751.503C791.017 751.086 790.887 750.55 790.067 750.201C789.077 749.776 787.477 749.776 786.487 750.201C785.497 750.625 785.497 751.317 786.487 751.741C787.307 752.09 788.557 752.15 789.517 751.912L841.584 774.276H891.601H891.591ZM438.739 571.962C439.289 571.545 439.159 571.009 438.339 570.66C437.349 570.235 435.749 570.235 434.758 570.66C433.768 571.084 433.768 571.776 434.758 572.2C435.579 572.549 436.829 572.609 437.789 572.371L478.674 589.929V596.937L442.329 581.328L441.379 581.738L480.025 598.336V589.691L438.749 571.962H438.739ZM803.779 721.951L907.973 766.702C907.423 767.119 907.553 767.655 908.374 768.004C909.364 768.428 910.964 768.428 911.954 768.004C912.944 767.58 912.944 766.888 911.954 766.464C911.134 766.107 909.884 766.055 908.924 766.293L804.729 721.542L803.779 721.951ZM418.856 585.145C419.406 584.728 419.276 584.193 418.456 583.843C417.466 583.419 415.866 583.419 414.876 583.843C413.886 584.267 413.886 584.959 414.876 585.383C415.696 585.733 416.946 585.792 417.906 585.554L464.593 605.605V618.32L383.401 583.449L382.451 583.858L465.943 619.719V605.367L418.866 585.145H418.856ZM446.65 568.569L487.926 586.298H508.049L469.403 569.7L468.453 570.109L504.798 585.718H488.486L447.6 568.16C448.15 567.743 448.02 567.207 447.2 566.858C446.21 566.434 444.61 566.434 443.62 566.858C442.63 567.282 442.63 567.974 443.62 568.398C444.44 568.747 445.69 568.807 446.65 568.569ZM375.28 596.9L417.416 614.994L418.366 614.585L376.23 596.491C376.78 596.074 376.65 595.539 375.83 595.189C374.84 594.765 373.24 594.765 372.25 595.189C371.26 595.613 371.26 596.305 372.25 596.729C373.07 597.079 374.32 597.138 375.28 596.9ZM391.272 580.064L390.322 580.473L455.991 608.678L456.941 608.268L391.272 580.064ZM484.825 599.579V621.058L536.892 643.422C536.342 643.839 536.472 644.375 537.293 644.724C538.283 645.148 539.883 645.148 540.873 644.724C541.863 644.3 541.863 643.608 540.873 643.184C540.053 642.835 538.803 642.775 537.843 643.013L486.166 620.82V600.97L569.857 636.912L570.807 636.503L484.825 599.571V599.579ZM777.846 734.629C776.855 734.205 775.255 734.205 774.265 734.629C773.275 735.053 773.275 735.745 774.265 736.169C775.085 736.518 776.335 736.578 777.296 736.34L850.356 767.714C849.805 768.131 849.935 768.667 850.756 769.016C851.746 769.44 853.346 769.44 854.336 769.016C855.326 768.592 855.326 767.9 854.336 767.476C853.516 767.126 852.266 767.067 851.306 767.305L778.246 735.931C778.796 735.514 778.666 734.978 777.846 734.629ZM624.755 628.029C625.745 628.453 627.345 628.453 628.335 628.029C629.325 627.605 629.325 626.913 628.335 626.489C627.515 626.139 626.265 626.08 625.305 626.318L552.245 594.944C552.795 594.527 552.665 593.991 551.845 593.642C550.854 593.217 549.254 593.217 548.264 593.642C547.274 594.066 547.274 594.758 548.264 595.182C549.084 595.531 550.334 595.591 551.294 595.353L624.355 626.727C623.804 627.144 623.934 627.679 624.755 628.029ZM493.106 536.317L492.156 536.726L545.894 559.805L546.844 559.395L493.106 536.317ZM495.017 545.468L544.404 566.679L545.354 566.27L495.967 545.059C496.517 544.642 496.387 544.106 495.567 543.757C494.577 543.333 492.976 543.333 491.986 543.757C490.996 544.181 490.996 544.873 491.986 545.297C492.806 545.646 494.057 545.706 495.017 545.468ZM774.265 626.489C773.275 626.913 773.275 627.605 774.265 628.029C775.255 628.453 776.855 628.453 777.846 628.029C778.666 627.679 778.796 627.144 778.246 626.727L851.306 595.353C852.276 595.591 853.516 595.531 854.336 595.182C855.326 594.758 855.326 594.066 854.336 593.642C853.346 593.217 851.746 593.217 850.756 593.642C849.935 593.999 849.805 594.527 850.356 594.944L777.296 626.318C776.325 626.08 775.085 626.139 774.265 626.489ZM789.567 610.716C788.597 610.478 787.357 610.538 786.537 610.887C785.547 611.311 785.547 612.003 786.537 612.427C787.527 612.852 789.127 612.852 790.117 612.427C790.937 612.078 791.067 611.542 790.517 611.125L842.194 588.932H888.401L804.709 624.874L805.659 625.284L891.651 588.352H841.634L789.567 610.716ZM466.463 547.767L465.513 548.176L531.182 576.381L532.132 575.972L466.463 547.767ZM477.344 560.02L524.421 580.242H557.835L474.344 544.382L473.394 544.791L554.585 579.662H524.981L478.294 559.611C478.845 559.195 478.714 558.659 477.894 558.309C476.904 557.885 475.304 557.885 474.314 558.309C473.324 558.733 473.324 559.425 474.314 559.849C475.134 560.199 476.384 560.258 477.344 560.02ZM828.983 712.666C827.993 712.242 826.392 712.242 825.402 712.666C824.412 713.09 824.412 713.782 825.402 714.206C826.222 714.556 827.472 714.615 828.433 714.377L901.493 745.751C900.943 746.168 901.073 746.704 901.893 747.053C902.883 747.478 904.483 747.478 905.473 747.053C906.463 746.629 906.463 745.937 905.473 745.513C904.653 745.164 903.403 745.104 902.443 745.342L829.383 713.968C829.933 713.551 829.803 713.016 828.983 712.666ZM405.434 640.55H434.068L517.39 676.337L518.34 675.927L434.628 639.97H402.194L502.128 682.891L503.078 682.482L405.444 640.55H405.434ZM917.785 763.079V741.6L865.718 719.235C866.268 718.819 866.138 718.283 865.318 717.933C864.327 717.509 862.727 717.509 861.737 717.933C860.747 718.358 860.747 719.049 861.737 719.474C862.557 719.823 863.807 719.883 864.768 719.645L916.445 741.838V761.688L832.753 725.745L831.803 726.155L917.785 763.087V763.079ZM644.267 618.179C643.717 618.595 643.847 619.131 644.667 619.481C645.657 619.905 647.258 619.905 648.248 619.481C649.238 619.056 649.238 618.365 648.248 617.94C647.428 617.591 646.177 617.531 645.217 617.769L567.677 584.468H519.73L450.371 554.678L449.42 555.088L519.18 585.048H567.127L644.267 618.179ZM510.959 588.352L596.941 625.284L597.891 624.874L514.199 588.932H560.406L612.083 611.125C611.533 611.542 611.663 612.078 612.483 612.427C613.473 612.852 615.073 612.852 616.063 612.427C617.053 612.003 617.053 611.311 616.063 610.887C615.243 610.538 613.993 610.478 613.033 610.716L560.966 588.352H510.949H510.959ZM1105.54 730.284L1225.38 678.814L1218.23 675.741L1098.39 727.211L1105.54 730.284ZM1100.29 727.211L1218.23 676.56L1223.48 678.814L1105.54 729.465L1100.29 727.211ZM1019.88 630.663L1073.82 607.495L1072.87 607.086L1019.32 630.082H996.136L1016.37 638.772L1081.5 610.798L1080.55 610.389L1016.37 637.954L999.386 630.663H1019.87H1019.88ZM875.519 708.076C876.069 707.659 875.939 707.123 875.119 706.774C874.129 706.349 872.529 706.349 871.538 706.774C870.548 707.198 870.548 707.89 871.538 708.314C872.359 708.663 873.609 708.723 874.569 708.485L958.99 744.747H993.985L1046.73 767.402L1047.68 766.993L994.535 744.167H959.541L875.509 708.076H875.519ZM849.365 680.942L976.253 626.444H1010.74L1064.33 603.425L1063.38 603.016L1010.18 625.864H975.693L847.465 680.935L963.991 730.983H1006.05L1068.89 757.968L1069.84 757.559L1006.61 730.403H964.551L849.365 680.935V680.942ZM981.814 632.158L980.863 631.749L869.158 679.722L870.108 680.131L981.814 632.158ZM1079.02 666.553V653.749L1053.03 642.589L1104.28 620.582L1103.33 620.172L1051.13 642.589L1077.67 653.987V665.154L1026.33 643.11L1083.43 618.588L1082.48 618.179L1024.43 643.11L1079.02 666.553ZM954.92 672.237L1077.65 724.949L1147.27 695.048L1094.62 672.438L1159.82 644.434L1158.87 644.025L1092.72 672.438L1145.37 695.048L1077.65 724.131L955.87 671.828L954.92 672.237ZM1100.23 647.046L1133.06 632.939L1132.11 632.53L1099.28 646.636L1100.23 647.046ZM936.157 814.898L937.107 814.489L871.438 786.284L870.488 786.694L936.157 814.898ZM1139.69 635.789L1102.59 651.785L1088.39 645.684L1117.93 632.991L1104.09 627.047L1066.21 643.318L1084.52 651.182V668.785H1085.87V650.937L1068.12 643.311L1104.1 627.858L1116.03 632.984L1086.49 645.677L1102.59 652.596L1140.65 636.191L1139.7 635.781L1139.69 635.789ZM1071.89 657.045L1040.28 643.467L1090.83 621.757L1089.88 621.348L1038.38 643.467L1070.95 657.454L1071.9 657.045H1071.89ZM1139.63 641.131L1138.68 640.722L1093.1 660.296V668.718L1148.48 644.933L1147.53 644.523L1094.44 667.319V660.534L1139.63 641.131ZM553.675 555.638V570.667L638.096 606.929C637.546 607.346 637.676 607.882 638.496 608.231C639.487 608.655 641.087 608.655 642.077 608.231C643.067 607.807 643.067 607.115 642.077 606.691C641.257 606.342 640.007 606.282 639.047 606.52L555.015 570.429V555.4L501.868 532.574L500.918 532.984L553.665 555.638H553.675ZM955.97 794.104L914.694 776.374H894.572L933.217 792.973L934.167 792.564L897.822 776.955H914.134L955.02 794.513C954.47 794.93 954.6 795.465 955.42 795.815C956.41 796.239 958.01 796.239 959.001 795.815C959.991 795.391 959.991 794.699 959.001 794.275C958.18 793.925 956.93 793.866 955.97 794.104ZM502.528 592.563L606.722 637.314L607.672 636.905L503.478 592.154C504.028 591.737 503.898 591.201 503.078 590.852C502.088 590.427 500.487 590.427 499.497 590.852C498.507 591.276 498.507 591.968 499.497 592.392C500.317 592.741 501.568 592.801 502.528 592.563ZM900.072 770.095L795.878 725.344L794.928 725.753L899.122 770.504C898.572 770.921 898.702 771.457 899.522 771.806C900.512 772.23 902.113 772.23 903.103 771.806C904.093 771.382 904.093 770.69 903.103 770.266C902.283 769.909 901.032 769.857 900.072 770.095ZM925.256 802.637L878.179 782.416H844.765L928.256 818.276L929.206 817.867L848.015 782.996H877.619L924.306 803.047C923.756 803.463 923.886 803.999 924.706 804.349C925.696 804.773 927.296 804.773 928.286 804.349C929.276 803.924 929.276 803.233 928.286 802.808C927.466 802.451 926.216 802.399 925.256 802.637ZM758.343 744.479C758.893 744.063 758.763 743.527 757.943 743.177C756.953 742.753 755.353 742.753 754.362 743.177C753.372 743.601 753.372 744.293 754.362 744.717C755.183 745.067 756.433 745.127 757.393 744.888L834.933 778.19H882.88L952.24 807.979L953.19 807.57L883.43 777.609H835.484L758.343 744.479ZM963.851 790.696C963.301 791.113 963.431 791.649 964.251 791.998C965.241 792.422 966.842 792.422 967.832 791.998C968.822 791.574 968.822 790.882 967.832 790.458C967.012 790.108 965.761 790.049 964.801 790.287L923.916 772.729V765.72L960.261 781.329L961.211 780.92L922.566 764.322V772.967L963.841 790.696H963.851ZM1026.67 772.997L969.182 748.311L968.232 748.72L1025.72 773.406C1025.17 773.822 1025.3 774.358 1026.12 774.708C1027.11 775.132 1028.71 775.132 1029.7 774.708C1030.69 774.284 1030.69 773.592 1029.7 773.168C1028.88 772.811 1027.63 772.759 1026.67 772.997ZM845.305 704.117C844.315 704.542 844.315 705.233 845.305 705.658C846.125 706.007 847.375 706.067 848.335 705.829L925.476 738.959V759.553L995.235 789.513L996.186 789.104L926.826 759.314V738.721L849.285 705.419C849.835 705.003 849.705 704.467 848.885 704.117C847.895 703.693 846.295 703.693 845.305 704.117ZM983.744 777.52C983.194 777.937 983.324 778.472 984.144 778.822C985.134 779.246 986.734 779.246 987.724 778.822C988.715 778.398 988.715 777.706 987.724 777.282C986.904 776.932 985.654 776.873 984.694 777.111L938.008 757.06V744.345L1019.2 779.216L1020.15 778.807L936.657 742.947V757.298L983.734 777.52H983.744ZM1027.32 765.758L985.184 747.664L984.234 748.073L1026.37 766.167C1025.82 766.583 1025.95 767.119 1026.77 767.469C1027.76 767.893 1029.36 767.893 1030.35 767.469C1031.34 767.045 1031.34 766.353 1030.35 765.929C1029.53 765.579 1028.28 765.519 1027.32 765.758ZM1011.33 782.594L1012.28 782.185L946.609 753.98L945.659 754.389L1011.33 782.594ZM1080.58 642.738L1081.53 643.147L1106.55 632.396L1105.6 631.987L1080.58 642.738ZM933.197 569.692L894.552 586.291H914.674L955.95 568.561C956.92 568.8 958.16 568.74 958.98 568.39C959.971 567.966 959.971 567.274 958.98 566.85C957.99 566.426 956.39 566.426 955.4 566.85C954.58 567.207 954.45 567.736 955 568.152L914.114 585.711H897.802L934.147 570.102L933.197 569.692ZM996.576 722.45H967.942L884.62 686.663L883.67 687.073L967.382 723.03H999.816L899.882 680.109L898.932 680.518L996.566 722.45H996.576ZM946.609 608.67L1012.28 580.465L1011.33 580.056L945.659 608.261L946.609 608.67ZM925.476 623.692L848.335 656.822C847.365 656.584 846.125 656.643 845.305 656.993C844.315 657.417 844.315 658.109 845.305 658.533C846.295 658.957 847.895 658.957 848.885 658.533C849.705 658.176 849.835 657.647 849.285 657.231L926.826 623.93V603.336L996.186 573.546L995.235 573.137L925.476 603.098V623.692ZM834.923 584.461L757.383 617.762C756.413 617.524 755.173 617.583 754.352 617.933C753.362 618.357 753.362 619.049 754.352 619.473C755.343 619.897 756.943 619.897 757.933 619.473C758.753 619.116 758.883 618.588 758.333 618.171L835.474 585.041H883.42L953.18 555.08L952.23 554.671L882.87 584.461H834.923ZM901.863 541.532C902.853 541.108 902.853 540.416 901.863 539.992C900.873 539.568 899.272 539.568 898.282 539.992C897.462 540.342 897.332 540.877 897.882 541.294L855.746 559.388L856.696 559.797L898.832 541.703C899.802 541.941 901.043 541.882 901.863 541.532ZM847.595 555.378V570.407L763.564 606.498C762.593 606.26 761.353 606.319 760.533 606.669C759.543 607.093 759.543 607.785 760.533 608.209C761.523 608.633 763.124 608.633 764.114 608.209C764.934 607.859 765.064 607.324 764.514 606.907L848.935 570.645V555.616L901.683 532.961L900.732 532.552L847.585 555.378H847.595ZM938.008 605.59L984.694 585.539C985.664 585.778 986.904 585.718 987.724 585.368C988.715 584.944 988.715 584.252 987.724 583.828C986.734 583.404 985.134 583.404 984.144 583.828C983.324 584.178 983.194 584.714 983.744 585.13L936.667 605.352V619.704L1020.16 583.843L1019.21 583.434L938.018 618.305V605.59H938.008ZM858.197 566.672L915.685 541.978C916.655 542.217 917.895 542.157 918.715 541.807C919.705 541.383 919.705 540.691 918.715 540.267C917.725 539.843 916.125 539.843 915.134 540.267C914.314 540.617 914.184 541.153 914.734 541.569L857.247 566.263L858.197 566.672ZM878.179 580.227L925.256 560.006C926.226 560.244 927.466 560.184 928.286 559.834C929.276 559.41 929.276 558.718 928.286 558.294C927.296 557.87 925.696 557.87 924.706 558.294C923.886 558.644 923.756 559.18 924.306 559.596L877.619 579.647H848.015L929.206 544.776L928.256 544.367L844.765 580.227H878.179ZM871.418 576.366L937.087 548.161L936.137 547.752L870.468 575.957L871.418 576.366ZM961.231 581.715L960.281 581.306L923.936 596.915V589.907L964.821 572.348C965.791 572.586 967.032 572.527 967.852 572.177C968.842 571.753 968.842 571.061 967.852 570.637C966.862 570.213 965.261 570.213 964.271 570.637C963.451 570.987 963.321 571.523 963.871 571.939L922.595 589.669V598.314L961.241 581.715H961.231ZM939.408 671.196L973.542 656.532V674.09L1005.3 687.727L1058.79 664.753L988.615 634.613L900.662 672.386L1084.38 751.287L1085.33 750.878L902.563 672.386L988.615 635.432L1056.88 664.753L1005.29 686.909L974.873 673.844V655.125L937.488 671.181L1104.66 742.976L1246.99 681.85L1246.04 681.44L1104.66 742.158L939.398 671.181L939.408 671.196ZM1005.35 681.321L1042.48 665.37L1019.91 655.676L982.774 671.627L1005.35 681.321ZM984.674 671.627L1019.9 656.494L1040.57 665.37L1005.35 680.503L984.674 671.627ZM987.844 641.912L982.194 644.337L991.375 648.281V664.448L1010.88 656.07L1001 651.822L1000.05 652.231L1008.98 656.07L992.725 663.049V648.043L984.104 644.337L987.854 642.73L1014.16 654.024L1015.11 653.615L987.854 641.912H987.844ZM983.904 651.138V666.278H985.254V650.899L976.093 646.964L918.995 671.486L1083.81 742.27L1084.76 741.86L920.895 671.486L976.093 647.782L983.904 651.138ZM1104.08 736.288L1239.38 678.182L1219.66 669.708L1084.36 727.814L1104.08 736.288ZM1086.26 727.814L1219.65 670.526L1237.47 678.182L1104.08 735.469L1086.26 727.814ZM1021.6 592.95C1022.59 592.526 1022.59 591.834 1021.6 591.41C1020.61 590.985 1019.01 590.985 1018.02 591.41C1017.2 591.759 1017.07 592.295 1017.62 592.712L968.232 613.923L969.182 614.332L1018.57 593.121C1019.54 593.359 1020.78 593.299 1021.6 592.95ZM985.184 614.979L1038.92 591.901L1037.97 591.491L984.234 614.57L985.184 614.979ZM958.98 617.903L874.559 654.166C873.589 653.928 872.349 653.987 871.528 654.337C870.538 654.761 870.538 655.453 871.528 655.877C872.519 656.301 874.119 656.301 875.109 655.877C875.929 655.52 876.059 654.991 875.509 654.575L959.541 618.484H994.535L1047.68 595.658L1046.73 595.249L993.985 617.903H958.99H958.98ZM1159.58 681.143L1186.19 669.715L1164.34 660.326L1137.73 671.754L1159.58 681.143ZM1139.63 671.754L1164.33 661.144L1184.28 669.715L1159.58 680.324L1139.63 671.754ZM1156.48 694.185L1216.56 668.383L1167.43 647.284L1107.35 673.085L1156.48 694.185ZM1109.26 673.085L1167.43 648.102L1214.65 668.383L1156.48 693.367L1109.26 673.085ZM1158.17 687.087L1200.03 669.105L1165.75 654.381L1123.88 672.364L1158.17 687.087ZM1125.79 672.364L1165.75 655.2L1198.12 669.105L1158.17 686.269L1125.79 672.364ZM713.987 759.947L713.037 760.356L796.358 796.142V808.441L698.725 766.509L697.775 766.918L797.708 809.839V795.904L713.987 759.947ZM527.501 706.759C526.681 707.108 526.551 707.644 527.101 708.061L443.07 744.152H408.075L354.927 766.978L355.878 767.387L408.625 744.732H443.62L528.041 708.47C529.011 708.708 530.252 708.648 531.072 708.299C532.062 707.875 532.062 707.183 531.072 706.759C530.082 706.335 528.481 706.335 527.491 706.759H527.501ZM299.44 711.215L313.632 717.309L284.088 730.001L297.93 735.946L335.815 719.674L317.502 711.81V694.207H316.152V712.056L333.905 719.682L297.92 735.135L285.988 730.009L315.532 717.316L299.43 710.397L261.375 726.802L262.325 727.211L299.42 711.215H299.44ZM383.401 779.202L464.593 744.33V757.045L417.906 777.096C416.936 776.858 415.696 776.917 414.876 777.267C413.886 777.691 413.886 778.383 414.876 778.807C415.866 779.231 417.466 779.231 418.456 778.807C419.276 778.45 419.406 777.922 418.856 777.505L465.933 757.283V742.932L382.441 778.792L383.391 779.202H383.401ZM262.405 721.869L263.355 722.278L308.931 702.704V694.282L253.554 718.067L254.504 718.477L307.591 695.681V702.466L262.405 721.869ZM391.272 782.587L456.941 754.382L455.991 753.973L390.322 782.177L391.272 782.587ZM381.001 769.678C380.011 770.102 380.011 770.794 381.001 771.218C381.991 771.643 383.591 771.643 384.582 771.218C385.402 770.869 385.532 770.333 384.982 769.916L434.368 748.705L433.418 748.296L384.031 769.507C383.061 769.269 381.821 769.329 381.001 769.678ZM321.433 720.255L320.483 719.846L295.459 730.596L296.409 731.005L321.433 720.255ZM323.003 696.447V709.251L348.987 720.411L297.74 742.418L298.69 742.828L350.887 720.411L324.343 709.013V697.846L375.68 719.89L318.582 744.412L319.533 744.821L377.581 719.89L322.993 696.447H323.003ZM256.654 667.952L324.373 638.869L446.15 691.172L447.1 690.763L324.373 638.051L254.754 667.952L307.401 690.562L242.202 718.566L243.152 718.975L309.301 690.562L256.654 667.952ZM405.874 732.91L385.642 724.22L320.513 752.194L321.463 752.604L385.642 725.039L402.624 732.33H382.141L328.204 755.498L329.154 755.907L382.701 732.91H405.884H405.874ZM301.8 715.954L268.966 730.061L269.916 730.47L302.75 716.364L301.8 715.954ZM330.144 705.955L361.758 719.533L311.211 741.243L312.162 741.652L363.659 719.533L331.094 705.546L330.144 705.955ZM613.043 751.934C614.013 752.172 615.253 752.113 616.073 751.763C617.064 751.339 617.064 750.647 616.073 750.223C615.083 749.799 613.483 749.799 612.493 750.223C611.673 750.573 611.543 751.108 612.093 751.525L560.416 773.718H514.209L597.901 737.776L596.951 737.367L510.959 774.299H560.976L613.043 751.934ZM447.21 795.8C448.03 795.45 448.16 794.915 447.61 794.498L488.496 776.94H504.808L468.463 792.549L469.413 792.958L508.059 776.359H487.936L446.66 794.089C445.69 793.851 444.45 793.91 443.63 794.26C442.64 794.684 442.64 795.376 443.63 795.8C444.62 796.224 446.22 796.224 447.21 795.8ZM364.639 771.151L418.376 748.073L417.426 747.664L363.689 770.742L364.639 771.151ZM648.258 744.71C649.248 744.286 649.248 743.594 648.258 743.17C647.268 742.746 645.667 742.746 644.677 743.17C643.857 743.519 643.727 744.055 644.277 744.472L567.137 777.602H519.19L449.43 807.563L450.381 807.972L519.74 778.182H567.687L645.227 744.881C646.198 745.119 647.438 745.06 648.258 744.71ZM437.809 790.287C436.839 790.049 435.599 790.108 434.778 790.458C433.788 790.882 433.788 791.574 434.778 791.998C435.769 792.422 437.369 792.422 438.359 791.998C439.179 791.649 439.309 791.113 438.759 790.696L480.035 772.967V764.322L441.389 780.92L442.339 781.329L478.684 765.72V772.729L437.799 790.287H437.809ZM624.775 734.629C623.954 734.986 623.824 735.514 624.375 735.931L551.314 767.305C550.344 767.067 549.104 767.126 548.284 767.476C547.294 767.9 547.294 768.592 548.284 769.016C549.274 769.44 550.874 769.44 551.865 769.016C552.685 768.667 552.815 768.131 552.265 767.714L625.325 736.34C626.295 736.578 627.535 736.518 628.355 736.169C629.345 735.745 629.345 735.053 628.355 734.629C627.365 734.205 625.765 734.205 624.775 734.629ZM497.147 745.521C496.157 745.945 496.157 746.637 497.147 747.061C498.137 747.485 499.737 747.485 500.728 747.061C501.548 746.711 501.678 746.176 501.128 745.759L574.188 714.385C575.158 714.623 576.398 714.563 577.218 714.213C578.208 713.789 578.208 713.097 577.218 712.673C576.228 712.249 574.628 712.249 573.638 712.673C572.817 713.023 572.687 713.559 573.237 713.975L500.177 745.35C499.207 745.112 497.967 745.171 497.147 745.521ZM553.735 704.117C552.915 704.467 552.785 705.003 553.335 705.419L475.794 738.721V759.314L406.435 789.104L407.385 789.513L477.144 759.553V738.959L554.285 705.829C555.255 706.067 556.495 706.007 557.315 705.658C558.305 705.233 558.305 704.542 557.315 704.117C556.325 703.693 554.725 703.693 553.735 704.117ZM537.313 717.933C536.492 718.283 536.362 718.819 536.912 719.235L484.845 741.6V763.079L570.827 726.147L569.877 725.738L486.186 761.68V741.831L537.863 719.637C538.833 719.875 540.073 719.816 540.893 719.466C541.883 719.042 541.883 718.35 540.893 717.926C539.903 717.502 538.303 717.502 537.313 717.926V717.933ZM606.742 725.344L502.548 770.095C501.578 769.857 500.337 769.916 499.517 770.266C498.527 770.69 498.527 771.382 499.517 771.806C500.507 772.23 502.108 772.23 503.098 771.806C503.918 771.449 504.048 770.921 503.498 770.504L607.692 725.753L606.742 725.344ZM597.881 721.542L493.687 766.293C492.716 766.055 491.476 766.115 490.656 766.464C489.666 766.888 489.666 767.58 490.656 768.004C491.646 768.428 493.246 768.428 494.237 768.004C495.057 767.655 495.187 767.119 494.637 766.702L598.831 721.951L597.881 721.542ZM528.061 654.18L443.64 617.918H408.645L355.898 595.263L354.947 595.673L408.095 618.498H443.09L527.121 654.59C526.571 655.006 526.701 655.542 527.521 655.892C528.511 656.316 530.112 656.316 531.102 655.892C532.092 655.468 532.092 654.776 531.102 654.352C530.282 654.002 529.031 653.942 528.071 654.18H528.061ZM333.144 605.032L332.194 605.441L395.423 632.597H437.479L552.665 682.065L425.777 736.563H391.292L337.695 759.582L338.645 759.992L391.853 737.143H426.337L554.565 682.073L438.039 632.024H395.983L333.144 605.04V605.032ZM571.477 814.288L518.27 837.136L519.22 837.546L572.817 814.526V799.713L699.705 745.216L814.891 794.684V812.748L878.119 839.904L879.069 839.495L816.231 812.51V794.446L699.705 744.397L571.477 799.468V814.281V814.288ZM555.015 792.244L639.047 756.153C640.017 756.391 641.257 756.331 642.077 755.981C643.067 755.557 643.067 754.865 642.077 754.441C641.087 754.017 639.487 754.017 638.496 754.441C637.676 754.791 637.546 755.327 638.096 755.743L553.665 792.006V807.034L500.918 829.689L501.868 830.098L555.015 807.272V792.244ZM662.07 835.172L715.567 812.198L683.803 798.56H642.917L677.052 783.904L842.314 854.881L700.935 915.598L701.885 916.007L844.215 854.881L677.042 783.085L639.657 799.141H683.233L713.647 812.205L662.06 834.361L593.79 805.04L679.842 768.086L862.607 846.578L863.557 846.169L679.842 767.268L591.89 805.04L662.07 835.18V835.172ZM696.864 753.72L585.159 801.692L586.109 802.102L697.815 754.129L696.864 753.72ZM760.553 754.441C759.563 754.865 759.563 755.557 760.553 755.981C761.373 756.339 762.624 756.391 763.584 756.153L847.615 792.244V807.272L900.762 830.098L901.713 829.689L848.965 807.034V792.006L764.534 755.743C765.084 755.327 764.954 754.791 764.134 754.441C763.144 754.017 761.543 754.017 760.553 754.441ZM909.514 826.341L910.464 825.932L856.726 802.853L855.776 803.262L909.514 826.341ZM372.89 587.95C371.9 588.374 371.9 589.066 372.89 589.49C373.71 589.84 374.96 589.899 375.92 589.661L433.408 614.347L434.358 613.938L376.87 589.252C377.421 588.835 377.291 588.3 376.47 587.95C375.48 587.526 373.88 587.526 372.89 587.95ZM557.295 658.54C558.285 658.116 558.285 657.424 557.295 657C556.475 656.651 555.225 656.591 554.265 656.829L477.124 623.699V603.105L407.365 573.144L406.415 573.554L475.774 603.343V623.937L553.315 657.238C552.765 657.655 552.895 658.191 553.715 658.54C554.705 658.964 556.305 658.964 557.295 658.54ZM663.49 828.156L700.625 812.205L678.052 802.511L640.917 818.462L663.49 828.156ZM642.817 818.462L678.042 803.329L698.715 812.205L663.49 827.338L642.817 818.462ZM907.583 817.182L858.197 795.971L857.247 796.38L906.633 817.592C906.083 818.008 906.213 818.544 907.033 818.894C908.023 819.318 909.624 819.318 910.614 818.894C911.604 818.47 911.604 817.778 910.614 817.354C909.794 817.004 908.544 816.944 907.583 817.182ZM243.832 675.905L201.966 693.888L236.251 708.611L278.117 690.629L243.832 675.905ZM276.207 690.629L236.251 707.793L203.877 693.888L243.832 676.724L276.207 690.629ZM678.332 869.069L651.718 880.496L673.571 889.886L700.185 878.458L678.332 869.069ZM698.285 878.458L673.581 889.067L653.629 880.496L678.332 869.887L698.285 878.458ZM245.522 668.807L185.444 694.609L234.571 715.709L294.649 689.907L245.522 668.807ZM292.739 689.907L234.571 714.891L187.354 694.609L245.522 669.626L292.739 689.907ZM296.479 632.724L176.643 684.193L183.794 687.266L303.63 635.796L296.479 632.724ZM301.73 635.796L183.794 686.448L178.543 684.193L296.479 633.542L301.73 635.796ZM297.93 626.705L162.621 684.803L182.344 693.277L317.642 635.171L297.92 626.697L297.93 626.705ZM315.752 635.179L182.344 692.459L164.521 684.803L297.91 627.516L315.732 635.171L315.752 635.179ZM242.432 681.857L215.818 693.285L237.671 702.674L264.285 691.246L242.432 681.857ZM262.385 691.246L237.681 701.856L217.729 693.285L242.432 682.675L262.385 691.246ZM608.862 804.706L636.116 816.409L637.066 816L610.763 804.706L614.513 803.091L623.134 806.796H658.079L641.827 813.775L632.896 809.936L631.946 810.345L641.827 814.593L661.33 806.216H623.694L614.513 802.273L608.852 804.706H608.862ZM629.775 803.59H665.58V803.009H630.325L622.514 799.654L677.712 775.95L841.574 846.325L842.524 845.916L677.712 775.132L620.614 799.654L629.775 803.59ZM808.88 846.154L673.581 904.26L693.304 912.734L828.603 854.628L808.88 846.154ZM826.702 854.628L693.314 911.915L675.492 904.26L808.88 846.972L826.702 854.628ZM681.442 856.034L621.364 881.836L670.491 902.935L730.569 877.134L681.442 856.034ZM728.659 877.134L670.491 902.117L623.274 881.836L681.442 856.852L728.659 877.134ZM679.752 863.132L637.886 881.114L672.171 895.838L714.037 877.855L679.752 863.132ZM712.127 877.855L672.171 895.019L639.797 881.114L679.752 863.95L712.127 877.855ZM807.43 852.173L687.593 903.642L694.744 906.715L814.581 855.245L807.43 852.173ZM812.68 855.245L694.744 905.897L689.493 903.642L807.43 852.991L812.68 855.245Z" fill="url(#paint2_radial_451_6525)"/>
<path style="mix-blend-mode:multiply" d="M695.896 816.05C726.548 816.05 751.396 805.923 751.396 793.43C751.396 780.937 726.548 770.81 695.896 770.81C665.244 770.81 640.396 780.937 640.396 793.43C640.396 805.923 665.244 816.05 695.896 816.05Z" fill="url(#paint3_radial_451_6525)"/>
<path d="M701.286 751.68V701.08L659.326 674.98L701.286 751.68ZM655.846 667.19L701.286 695.45V584.14L655.846 667.19Z" fill="url(#paint4_linear_451_6525)"/>
<path d="M701.286 751.68L743.256 674.98L701.286 701.08V751.68ZM701.286 584.14V695.45L746.736 667.19L701.286 584.14Z" fill="url(#paint5_linear_451_6525)"/>
<path style="mix-blend-mode:color-dodge" d="M701.286 770.88C705.401 770.88 708.736 715.166 708.736 646.44C708.736 577.714 705.401 522 701.286 522C697.171 522 693.836 577.714 693.836 646.44C693.836 715.166 697.171 770.88 701.286 770.88Z" fill="url(#paint6_radial_451_6525)"/>
<path style="mix-blend-mode:screen" d="M701.286 691.89C714.823 691.89 725.796 671.542 725.796 646.44C725.796 621.339 714.823 600.99 701.286 600.99C687.75 600.99 676.776 621.339 676.776 646.44C676.776 671.542 687.75 691.89 701.286 691.89Z" fill="url(#paint7_radial_451_6525)"/>
<path style="mix-blend-mode:color-dodge" d="M686.45 851.88C690.565 851.88 693.9 796.166 693.9 727.44C693.9 658.714 690.565 603 686.45 603C682.335 603 679 658.714 679 727.44C679 796.166 682.335 851.88 686.45 851.88Z" fill="url(#paint8_radial_451_6525)"/>
<path style="mix-blend-mode:screen" d="M701.286 772.4C714.823 772.4 725.796 752.051 725.796 726.95C725.796 701.849 714.823 681.5 701.286 681.5C687.75 681.5 676.776 701.849 676.776 726.95C676.776 752.051 687.75 772.4 701.286 772.4Z" fill="url(#paint9_radial_451_6525)"/>
<path style="mix-blend-mode:color-dodge" d="M607.366 755.83C610.986 757.79 640.476 710.41 673.246 649.99C706.016 589.58 729.646 539.02 726.036 537.06C722.426 535.1 692.926 582.48 660.156 642.9C627.386 703.32 603.746 753.87 607.366 755.83Z" fill="url(#paint10_radial_451_6525)"/>
<path style="mix-blend-mode:screen" d="M688.239 658.142C700.208 636.078 700.266 612.959 688.368 606.504C676.469 600.049 657.121 612.703 645.151 634.767C633.181 656.83 633.124 679.949 645.022 686.404C656.92 692.859 676.269 680.205 688.239 658.142Z" fill="url(#paint11_radial_451_6525)"/>
<path style="mix-blend-mode:color-dodge" d="M736.336 820.14C739.976 818.23 717.066 767.33 685.166 706.46C653.256 645.59 624.436 597.79 620.796 599.7C617.156 601.61 640.066 652.51 671.976 713.38C703.886 774.25 732.696 822.05 736.346 820.14H736.336Z" fill="url(#paint12_radial_451_6525)"/>
<path style="mix-blend-mode:color-dodge" d="M666.236 820.14C662.596 818.23 685.506 767.33 717.416 706.46C749.326 645.59 778.136 597.79 781.786 599.7C785.426 601.61 762.516 652.51 730.606 713.38C698.696 774.25 669.886 822.05 666.236 820.14Z" fill="url(#paint13_radial_451_6525)"/>
<path style="mix-blend-mode:screen" d="M745.718 721.297C757.371 699.065 757.097 675.947 745.108 669.663C733.118 663.379 713.953 676.308 702.3 698.541C690.647 720.774 690.92 743.891 702.91 750.175C714.9 756.459 734.065 743.53 745.718 721.297Z" fill="url(#paint14_radial_451_6525)"/>
<path style="mix-blend-mode:color-dodge" d="M795.206 755.83C791.586 757.79 762.096 710.41 729.326 649.99C696.556 589.57 672.926 539.02 676.536 537.06C680.156 535.1 709.646 582.48 742.416 642.9C775.186 703.31 798.826 753.88 795.206 755.84V755.83Z" fill="url(#paint15_radial_451_6525)"/>
</g>
<defs>
<filter id="filter0_f_451_6525" x="-102" y="693" width="1604" height="524" filterUnits="userSpaceOnUse" color-interpolation-filters="sRGB">
<feFlood flood-opacity="0" result="BackgroundImageFix"/>
<feBlend mode="normal" in="SourceGraphic" in2="BackgroundImageFix" result="shape"/>
<feGaussianBlur stdDeviation="79.5" result="effect1_foregroundBlur_451_6525"/>
</filter>
<filter id="filter1_f_451_6525" x="-100" y="693" width="1604" height="524" filterUnits="userSpaceOnUse" color-interpolation-filters="sRGB">
<feFlood flood-opacity="0" result="BackgroundImageFix"/>
<feBlend mode="normal" in="SourceGraphic" in2="BackgroundImageFix" result="shape"/>
<feGaussianBlur stdDeviation="79.5" result="effect1_foregroundBlur_451_6525"/>
</filter>
<linearGradient id="paint0_linear_451_6525" x1="720" y1="0" x2="720" y2="1150.5" gradientUnits="userSpaceOnUse">
<stop/>
<stop offset="0.496525" stop-color="#190840"/>
<stop offset="0.901042" stop-color="#143193"/>
</linearGradient>
<linearGradient id="paint1_linear_451_6525" x1="720" y1="0" x2="720" y2="1150.5" gradientUnits="userSpaceOnUse">
<stop/>
<stop offset="0.496525" stop-color="#190840"/>
<stop offset="0.901042" stop-color="#7862C2"/>
</linearGradient>
<radialGradient id="paint2_radial_451_6525" cx="0" cy="0" r="1" gradientUnits="userSpaceOnUse" gradientTransform="translate(700.995 681.5) scale(438.23 325.997)">
<stop offset="0.14" stop-color="white"/>
<stop offset="0.15" stop-color="#FBFBFB" stop-opacity="0.99"/>
<stop offset="0.35" stop-color="#A3A3A3" stop-opacity="0.64"/>
<stop offset="0.53" stop-color="#5D5D5D" stop-opacity="0.37"/>
<stop offset="0.68" stop-color="#2A2A2A" stop-opacity="0.17"/>
<stop offset="0.79" stop-color="#0B0B0B" stop-opacity="0.05"/>
<stop offset="0.86" stop-opacity="0"/>
</radialGradient>
<radialGradient id="paint3_radial_451_6525" cx="0" cy="0" r="1" gradientUnits="userSpaceOnUse" gradientTransform="translate(617.377 815.636) rotate(-15.12) scale(54.0282 19.3686)">
<stop stop-color="#8171D6"/>
<stop offset="0.15" stop-color="#8273D6" stop-opacity="0.98"/>
<stop offset="0.27" stop-color="#8879D8" stop-opacity="0.94"/>
<stop offset="0.39" stop-color="#9385DB" stop-opacity="0.86"/>
<stop offset="0.5" stop-color="#A195E0" stop-opacity="0.74"/>
<stop offset="0.6" stop-color="#B3AAE6" stop-opacity="0.6"/>
<stop offset="0.7" stop-color="#CAC3ED" stop-opacity="0.42"/>
<stop offset="0.8" stop-color="#E4E1F6" stop-opacity="0.21"/>
<stop offset="0.88" stop-color="white" stop-opacity="0"/>
</radialGradient>
<linearGradient id="paint4_linear_451_6525" x1="675.866" y1="609.23" x2="696.276" y2="733.54" gradientUnits="userSpaceOnUse">
<stop stop-color="#4769E9"/>
<stop offset="1" stop-color="#4462F3"/>
</linearGradient>
<linearGradient id="paint5_linear_451_6525" x1="708.976" y1="756.13" x2="725.226" y2="615.15" gradientUnits="userSpaceOnUse">
<stop stop-color="#142BA8"/>
<stop offset="1" stop-color="#2C4DDC"/>
</linearGradient>
<radialGradient id="paint6_radial_451_6525" cx="0" cy="0" r="1" gradientUnits="userSpaceOnUse" gradientTransform="translate(695.494 647.448) rotate(90) scale(124.664 7.6716)">
<stop stop-color="white"/>
<stop offset="0.02" stop-color="#F6F6F6" stop-opacity="0.97"/>
<stop offset="0.13" stop-color="#BDBDBD" stop-opacity="0.74"/>
<stop offset="0.25" stop-color="#8A8A8A" stop-opacity="0.54"/>
<stop offset="0.37" stop-color="#606060" stop-opacity="0.38"/>
<stop offset="0.49" stop-color="#3D3D3D" stop-opacity="0.24"/>
<stop offset="0.62" stop-color="#222222" stop-opacity="0.14"/>
<stop offset="0.74" stop-color="#0F0F0F" stop-opacity="0.06"/>
<stop offset="0.87" stop-color="#030303" stop-opacity="0.01"/>
<stop offset="1" stop-opacity="0"/>
</radialGradient>
<radialGradient id="paint7_radial_451_6525" cx="0" cy="0" r="1" gradientUnits="userSpaceOnUse" gradientTransform="translate(704.081 646.255) rotate(90) scale(45.4045 24.301)">
<stop stop-color="#2B45CC"/>
<stop offset="0.66" stop-color="#3B1C3C" stop-opacity="0.28"/>
<stop offset="0.88" stop-color="#100710" stop-opacity="0.08"/>
<stop offset="1" stop-opacity="0"/>
</radialGradient>
<radialGradient id="paint8_radial_451_6525" cx="0" cy="0" r="1" gradientUnits="userSpaceOnUse" gradientTransform="translate(878.98 728.61) rotate(90) scale(124.664 7.6716)">
<stop stop-color="white"/>
<stop offset="0.02" stop-color="#F6F6F6" stop-opacity="0.97"/>
<stop offset="0.13" stop-color="#BDBDBD" stop-opacity="0.74"/>
<stop offset="0.25" stop-color="#8A8A8A" stop-opacity="0.54"/>
<stop offset="0.37" stop-color="#606060" stop-opacity="0.38"/>
<stop offset="0.49" stop-color="#3D3D3D" stop-opacity="0.24"/>
<stop offset="0.62" stop-color="#222222" stop-opacity="0.14"/>
<stop offset="0.74" stop-color="#0F0F0F" stop-opacity="0.06"/>
<stop offset="0.87" stop-color="#030303" stop-opacity="0.01"/>
<stop offset="1" stop-opacity="0"/>
</radialGradient>
<radialGradient id="paint9_radial_451_6525" cx="0" cy="0" r="1" gradientUnits="userSpaceOnUse" gradientTransform="translate(1036.22 726.676) rotate(90) scale(0.355 0.19)">
<stop stop-color="#D065D6"/>
<stop offset="0.34" stop-color="#803E83" stop-opacity="0.62"/>
<stop offset="0.66" stop-color="#3B1C3C" stop-opacity="0.28"/>
<stop offset="0.88" stop-color="#100710" stop-opacity="0.08"/>
<stop offset="1" stop-opacity="0"/>
</radialGradient>
<radialGradient id="paint10_radial_451_6525" cx="0" cy="0" r="1" gradientUnits="userSpaceOnUse" gradientTransform="translate(660.205 644.106) rotate(118.48) scale(124.683 7.6728)">
<stop stop-color="white"/>
<stop offset="0.02" stop-color="#F6F6F6" stop-opacity="0.97"/>
<stop offset="0.13" stop-color="#BDBDBD" stop-opacity="0.74"/>
<stop offset="0.25" stop-color="#8A8A8A" stop-opacity="0.54"/>
<stop offset="0.37" stop-color="#606060" stop-opacity="0.38"/>
<stop offset="0.49" stop-color="#3D3D3D" stop-opacity="0.24"/>
<stop offset="0.62" stop-color="#222222" stop-opacity="0.14"/>
<stop offset="0.74" stop-color="#0F0F0F" stop-opacity="0.06"/>
<stop offset="0.87" stop-color="#030303" stop-opacity="0.01"/>
<stop offset="1" stop-opacity="0"/>
</radialGradient>
<radialGradient id="paint11_radial_451_6525" cx="0" cy="0" r="1" gradientUnits="userSpaceOnUse" gradientTransform="translate(670 646) rotate(117.981) scale(47.0673 25.1909)">
<stop stop-color="#1D4AE0"/>
<stop offset="0.66" stop-color="#3B1C3C" stop-opacity="0.28"/>
<stop offset="0.88" stop-color="#100710" stop-opacity="0.08"/>
<stop offset="1" stop-opacity="0"/>
</radialGradient>
<radialGradient id="paint12_radial_451_6525" cx="0" cy="0" r="1" gradientUnits="userSpaceOnUse" gradientTransform="translate(674.579 713.123) rotate(62.34) scale(124.664 7.6716)">
<stop stop-color="white"/>
<stop offset="0.02" stop-color="#F6F6F6" stop-opacity="0.97"/>
<stop offset="0.13" stop-color="#BDBDBD" stop-opacity="0.74"/>
<stop offset="0.25" stop-color="#8A8A8A" stop-opacity="0.54"/>
<stop offset="0.37" stop-color="#606060" stop-opacity="0.38"/>
<stop offset="0.49" stop-color="#3D3D3D" stop-opacity="0.24"/>
<stop offset="0.62" stop-color="#222222" stop-opacity="0.14"/>
<stop offset="0.74" stop-color="#0F0F0F" stop-opacity="0.06"/>
<stop offset="0.87" stop-color="#030303" stop-opacity="0.01"/>
<stop offset="1" stop-opacity="0"/>
</radialGradient>
<radialGradient id="paint13_radial_451_6525" cx="0" cy="0" r="1" gradientUnits="userSpaceOnUse" gradientTransform="translate(721.744 710.135) rotate(117.66) scale(124.664 7.6716)">
<stop stop-color="white"/>
<stop offset="0.02" stop-color="#F6F6F6" stop-opacity="0.97"/>
<stop offset="0.13" stop-color="#BDBDBD" stop-opacity="0.74"/>
<stop offset="0.25" stop-color="#8A8A8A" stop-opacity="0.54"/>
<stop offset="0.37" stop-color="#606060" stop-opacity="0.38"/>
<stop offset="0.49" stop-color="#3D3D3D" stop-opacity="0.24"/>
<stop offset="0.62" stop-color="#222222" stop-opacity="0.14"/>
<stop offset="0.74" stop-color="#0F0F0F" stop-opacity="0.06"/>
<stop offset="0.87" stop-color="#030303" stop-opacity="0.01"/>
<stop offset="1" stop-opacity="0"/>
</radialGradient>
<radialGradient id="paint14_radial_451_6525" cx="0" cy="0" r="1" gradientUnits="userSpaceOnUse" gradientTransform="translate(723.603 709.315) rotate(117.66) scale(45.3974 24.2972)">
<stop stop-color="#4450D4"/>
<stop offset="0.66" stop-color="#3B1C3C" stop-opacity="0.28"/>
<stop offset="0.88" stop-color="#100710" stop-opacity="0.08"/>
<stop offset="1" stop-opacity="0"/>
</radialGradient>
<radialGradient id="paint15_radial_451_6525" cx="0" cy="0" r="1" gradientUnits="userSpaceOnUse" gradientTransform="translate(736.159 647.292) rotate(61.52) scale(124.683 7.6728)">
<stop stop-color="white"/>
<stop offset="0.02" stop-color="#F6F6F6" stop-opacity="0.97"/>
<stop offset="0.13" stop-color="#BDBDBD" stop-opacity="0.74"/>
<stop offset="0.25" stop-color="#8A8A8A" stop-opacity="0.54"/>
<stop offset="0.37" stop-color="#606060" stop-opacity="0.38"/>
<stop offset="0.49" stop-color="#3D3D3D" stop-opacity="0.24"/>
<stop offset="0.62" stop-color="#222222" stop-opacity="0.14"/>
<stop offset="0.74" stop-color="#0F0F0F" stop-opacity="0.06"/>
<stop offset="0.87" stop-color="#030303" stop-opacity="0.01"/>
<stop offset="1" stop-opacity="0"/>
</radialGradient>
<clipPath id="clip0_451_6525">
<rect width="1092" height="469" fill="white" transform="translate(155 494)"/>
</clipPath>
</defs>
</svg>
